<svg width="20" height="20" viewBox="0 0 20 20" fill="none" xmlns="http://www.w3.org/2000/svg">
<g clip-path="url(#clip0)">
<path d="M15.3201 15.5508C15.4935 15.5506 15.6601 15.6181 15.7845 15.7388C15.909 15.8595 15.9814 16.024 15.9865 16.1973C15.9916 16.3706 15.9289 16.5391 15.8118 16.6669C15.6946 16.7947 15.5322 16.8718 15.3591 16.8818L15.3201 16.883H0.66612C0.492736 16.8831 0.32612 16.8157 0.201675 16.6949C0.0772302 16.5742 0.0047648 16.4097 -0.000323185 16.2364C-0.00541117 16.0631 0.0572793 15.8946 0.174427 15.7668C0.291576 15.639 0.453948 15.5619 0.627043 15.5519L0.66612 15.5508H15.3201V15.5508Z" fill="#F9B198"/>
<path d="M10.9763 1.52662C11.0587 1.44415 11.1566 1.37872 11.2644 1.33409C11.3721 1.28945 11.4876 1.26648 11.6043 1.26648C11.7209 1.26648 11.8364 1.28945 11.9442 1.33409C12.0519 1.37872 12.1498 1.44415 12.2323 1.52662L14.4304 3.72471C14.5128 3.80718 14.5783 3.90509 14.6229 4.01284C14.6675 4.1206 14.6905 4.23609 14.6905 4.35272C14.6905 4.46936 14.6675 4.58485 14.6229 4.6926C14.5783 4.80036 14.5128 4.89826 14.4304 4.98073L12.9352 6.4761C12.8742 6.58723 12.7828 6.67866 12.6717 6.73965L7.18822 12.2227C7.04913 12.3619 6.88488 12.4734 6.70419 12.5513L2.55024 14.3402C2.41963 14.3964 2.27516 14.4121 2.13551 14.3853C1.99587 14.3585 1.86747 14.2904 1.76694 14.1899C1.6664 14.0893 1.59836 13.9609 1.5716 13.8213C1.54483 13.6816 1.56059 13.5371 1.61683 13.4065L3.40572 9.25302C3.4836 9.07226 3.59512 8.90793 3.73433 8.76878L10.9763 1.52662ZM9.82038 4.56687L4.67595 9.71085C4.66274 9.72408 4.65125 9.73892 4.64176 9.75503L4.6291 9.7799L3.45812 12.4987L6.17687 11.3277C6.19407 11.3203 6.21025 11.3107 6.22505 11.2992L6.24592 11.2808L11.3901 6.13662L9.82015 4.56665L9.82038 4.56687ZM11.6046 2.78264L10.7622 3.6248L12.332 5.19455L13.1746 4.35261L11.6046 2.78286V2.78264Z" fill="#333333"/>
</g>
<defs>
<clipPath id="clip0">
<rect width="20" height="20" fill="white"/>
</clipPath>
</defs>
</svg>
