<svg width="20" height="20" viewBox="0 0 20 20" fill="none" xmlns="http://www.w3.org/2000/svg">
<path d="M19.1716 11.1848C19.3826 11.1848 19.5856 11.2653 19.7392 11.4099C19.8928 11.5545 19.9855 11.7522 19.9984 11.9628L20 12.0132V15.3789L19.9984 15.6355C19.9819 16.7943 19.8485 17.4099 19.5069 18.049C19.1774 18.6697 18.6695 19.1776 18.0487 19.5069C17.3871 19.8608 16.7502 19.9912 15.5093 19.9995L12.0694 20C11.8543 19.9996 11.6479 19.9155 11.4937 19.7656C11.3395 19.6157 11.2496 19.4118 11.2431 19.1968C11.2365 18.9819 11.3138 18.7728 11.4586 18.6138C11.6034 18.4548 11.8043 18.3584 12.019 18.3448L12.0694 18.3432H15.3791C16.4566 18.3432 16.8562 18.2659 17.2677 18.046C17.5998 17.871 17.8712 17.5996 18.0462 17.2674L18.0898 17.1822C18.2698 16.8119 18.3383 16.4124 18.3432 15.4879L18.3435 12.0132C18.3435 11.7935 18.4307 11.5828 18.5861 11.4274C18.7415 11.2721 18.9522 11.1848 19.1719 11.1848H19.1716ZM0.828402 11.0555C1.03936 11.0555 1.24237 11.136 1.396 11.2806C1.54964 11.4252 1.64233 11.6229 1.65516 11.8335L1.65681 11.8839L1.65708 15.4879L1.65927 15.6923C1.67434 16.539 1.75679 16.8984 1.95403 17.2674C2.12903 17.5996 2.40044 17.871 2.73258 18.046L2.81777 18.0895C3.18814 18.2695 3.58755 18.338 4.51211 18.3429L7.97885 18.3432C8.19391 18.3436 8.4004 18.4276 8.55465 18.5774C8.7089 18.7273 8.79882 18.9313 8.80541 19.1462C8.81199 19.3612 8.73471 19.5703 8.58992 19.7293C8.44513 19.8883 8.24417 19.9848 8.02953 19.9984L7.97885 20H4.62141C3.29389 20 2.63588 19.8729 1.95157 19.5069C1.3307 19.1775 0.822793 18.6696 0.493371 18.0487C0.139437 17.3871 0.00904 16.7502 0.000821719 15.5093L0 11.8842C0 11.7754 0.021427 11.6677 0.0630581 11.5672C0.104689 11.4667 0.165709 11.3753 0.242634 11.2984C0.319558 11.2215 0.41088 11.1605 0.511386 11.1188C0.611892 11.0772 0.719615 11.0558 0.828402 11.0558V11.0555ZM12.1611 0H15.3789C16.7064 0 17.3644 0.127109 18.0487 0.493096C18.6696 0.822519 19.1775 1.33043 19.5069 1.95129C19.8485 2.59013 19.9819 3.20595 19.9984 4.36445L20 4.62114V7.77285C19.9996 7.98791 19.9156 8.1944 19.7658 8.34865C19.6159 8.5029 19.4119 8.59282 19.197 8.5994C18.982 8.60598 18.7729 8.52871 18.6139 8.38392C18.4549 8.23912 18.3584 8.03816 18.3448 7.82353L18.3432 7.77285V4.62141C18.3432 3.54399 18.2659 3.14431 18.046 2.73285C17.871 2.40072 17.5996 2.12931 17.2674 1.95431L17.1822 1.91075C16.8119 1.73077 16.4124 1.66228 15.4879 1.65735L12.1611 1.65708C11.9461 1.6567 11.7396 1.5727 11.5853 1.42283C11.4311 1.27297 11.3412 1.06899 11.3346 0.854031C11.328 0.639068 11.4053 0.429971 11.5501 0.270951C11.6949 0.111931 11.8958 0.0154535 12.1105 0.00191775L12.1611 0.000274315V0ZM7.87941 0C8.09447 0.000378729 8.30096 0.0843802 8.45521 0.234244C8.60946 0.384107 8.69938 0.588086 8.70597 0.803049C8.71255 1.01801 8.63527 1.22711 8.49048 1.38613C8.34569 1.54515 8.14473 1.64163 7.93009 1.65516L7.87968 1.65681L4.51211 1.65708L4.30775 1.65927C3.46099 1.67434 3.10158 1.75679 2.73258 1.95403C2.40044 2.12903 2.12903 2.40044 1.95403 2.73258L1.91048 2.81777C1.7305 3.18814 1.66201 3.58755 1.65708 4.51211L1.65681 7.7323C1.65636 7.94734 1.57231 8.15378 1.42242 8.30798C1.27253 8.46218 1.06856 8.55205 0.85362 8.5586C0.638679 8.56514 0.429614 8.48785 0.270624 8.34306C0.111633 8.19827 0.0151757 7.99732 0.00164344 7.78271L0 7.7323V4.62114C0 3.29361 0.127109 2.6356 0.493096 1.95129C0.822519 1.33043 1.33043 0.822519 1.95129 0.493096C2.61286 0.139163 3.24978 0.00876687 4.49074 0.000548629L7.87914 0H7.87941Z" fill="#777777"/>
<path d="M9.49017 13.4917L9.48908 13.5421C9.47847 13.7527 9.38798 13.9513 9.23604 14.0974C9.0841 14.2436 8.88215 14.3263 8.67133 14.3288C8.46051 14.3312 8.2567 14.2532 8.10141 14.1106C7.94612 13.968 7.85105 13.7715 7.83556 13.5613L7.832 13.4027L7.74927 6.2029C7.74972 5.98786 7.83377 5.78142 7.98365 5.62722C8.13354 5.47302 8.33751 5.38315 8.55245 5.3766C8.76739 5.37006 8.97646 5.44735 9.13545 5.59214C9.29444 5.73694 9.3909 5.93788 9.40443 6.15249L9.49017 13.4917Z" fill="#F9B198"/>
<path d="M13.9694 10.6868C13.8606 10.6881 13.7527 10.668 13.6517 10.6275C13.5507 10.5871 13.4586 10.5272 13.3808 10.4512C13.3029 10.3751 13.2408 10.2845 13.198 10.1845C13.1552 10.0845 13.1325 9.97705 13.1312 9.86826L13.0893 6.20921C13.0885 5.99337 13.172 5.78576 13.322 5.63058C13.472 5.47539 13.6767 5.38488 13.8924 5.37831C14.1082 5.37174 14.318 5.44964 14.4771 5.59541C14.6363 5.74118 14.7323 5.94332 14.7447 6.1588L14.788 9.84881C14.7893 9.9576 14.7691 10.0656 14.7287 10.1666C14.6883 10.2676 14.6283 10.3596 14.5523 10.4375C14.4763 10.5153 14.3857 10.5774 14.2857 10.6203C14.1857 10.6631 14.0782 10.6858 13.9694 10.6871V10.6868ZM14.788 13.4577C14.7875 13.6728 14.7035 13.8792 14.5536 14.0334C14.4037 14.1876 14.1997 14.2775 13.9848 14.284C13.7698 14.2906 13.5608 14.2133 13.4018 14.0685C13.2428 13.9237 13.1463 13.7227 13.1328 13.5081L13.1312 13.4577V11.9784C13.1304 11.7626 13.2139 11.555 13.364 11.3998C13.514 11.2446 13.7186 11.1541 13.9344 11.1475C14.1501 11.141 14.3599 11.2189 14.519 11.3646C14.6782 11.5104 14.7742 11.7125 14.7866 11.928L14.788 11.9784V13.4577ZM11.2881 10.7265C11.1793 10.7278 11.0713 10.7077 10.9703 10.6673C10.8693 10.6268 10.7773 10.5669 10.6994 10.4909C10.6216 10.4149 10.5595 10.3243 10.5166 10.2243C10.4738 10.1242 10.4511 10.0168 10.4498 9.90798L10.4079 6.24893C10.4071 6.03307 10.4905 5.82541 10.6405 5.67016C10.7905 5.51492 10.9952 5.42435 11.211 5.41775C11.4267 5.41114 11.6365 5.48902 11.7957 5.6348C11.9549 5.78058 12.051 5.98274 12.0633 6.19825L12.1066 9.88826C12.1079 9.99704 12.0878 10.105 12.0474 10.206C12.0069 10.307 11.947 10.3991 11.871 10.4769C11.795 10.5548 11.7044 10.6169 11.6044 10.6597C11.5043 10.7025 11.3969 10.7252 11.2881 10.7265ZM12.1069 13.4974C12.1076 13.7133 12.0241 13.9209 11.8741 14.0761C11.7241 14.2313 11.5195 14.3218 11.3037 14.3283C11.088 14.3349 10.8782 14.257 10.719 14.1112C10.5598 13.9655 10.4638 13.7633 10.4515 13.5479L10.4501 13.4974V12.0182C10.4505 11.8031 10.5345 11.5966 10.6843 11.4424C10.8342 11.2881 11.0382 11.1982 11.2531 11.1916C11.4681 11.185 11.6772 11.2623 11.8362 11.4071C11.9952 11.5519 12.0917 11.7528 12.1053 11.9675L12.1069 12.0182V13.4974ZM5.96264 10.7265C5.85385 10.7278 5.74587 10.7077 5.64487 10.6673C5.54386 10.6268 5.45181 10.5669 5.37397 10.4909C5.29613 10.4149 5.23402 10.3243 5.19119 10.2243C5.14837 10.1242 5.12566 10.0168 5.12438 9.90798L5.08246 6.24893C5.08164 6.03307 5.16511 5.82541 5.3151 5.67016C5.46508 5.51492 5.66975 5.42435 5.88551 5.41775C6.10128 5.41114 6.3111 5.48902 6.4703 5.6348C6.62951 5.78058 6.72552 5.98274 6.7379 6.19825L6.78118 9.88826C6.78248 9.99704 6.76235 10.105 6.72191 10.206C6.68148 10.307 6.62155 10.3991 6.54554 10.4769C6.46953 10.5548 6.37893 10.6169 6.27892 10.6597C6.1789 10.7025 6.07143 10.7252 5.96264 10.7265V10.7265ZM6.78146 13.4974C6.78221 13.7133 6.69869 13.9209 6.54867 14.0761C6.39866 14.2313 6.19401 14.3218 5.97827 14.3283C5.76253 14.3349 5.55275 14.257 5.39358 14.1112C5.2344 13.9655 5.13841 13.7633 5.12602 13.5479L5.12465 13.4974V12.0182C5.12503 11.8031 5.20903 11.5966 5.3589 11.4424C5.50876 11.2881 5.71274 11.1982 5.9277 11.1916C6.14266 11.185 6.35176 11.2623 6.51078 11.4071C6.6698 11.5519 6.76628 11.7528 6.77981 11.9675L6.78146 12.0182V13.4974V13.4974Z" fill="#777777"/>
</svg>
