<svg width="16" height="16" viewBox="0 0 16 16" fill="none" xmlns="http://www.w3.org/2000/svg">
<g clip-path="url(#clip0)">
<path d="M11.5888 4.08698H4.41485C4.35062 4.08698 4.28701 4.09963 4.22767 4.12421C4.16832 4.14879 4.1144 4.18482 4.06898 4.23024C4.02356 4.27566 3.98753 4.32958 3.96295 4.38892C3.93837 4.44827 3.92572 4.51187 3.92572 4.57611V5.44676C3.92572 5.57648 3.97725 5.70089 4.06898 5.79262C4.16071 5.88435 4.28513 5.93589 4.41485 5.93589C4.54458 5.93589 4.66899 5.88435 4.76072 5.79262C4.85245 5.70089 4.90398 5.57648 4.90398 5.44676V5.06524H7.50876V11.2609H7.04605C6.98181 11.2609 6.91821 11.2735 6.85886 11.2981C6.79952 11.3227 6.7456 11.3587 6.70018 11.4042C6.65476 11.4496 6.61873 11.5035 6.59415 11.5628C6.56957 11.6222 6.55692 11.6858 6.55692 11.75C6.55692 11.8143 6.56957 11.8779 6.59415 11.9372C6.61873 11.9965 6.65476 12.0505 6.70018 12.0959C6.7456 12.1413 6.79952 12.1773 6.85886 12.2019C6.91821 12.2265 6.98181 12.2391 7.04605 12.2391H8.95007C9.07979 12.2391 9.20421 12.1876 9.29594 12.0959C9.38767 12.0042 9.4392 11.8797 9.4392 11.75C9.4392 11.6203 9.38767 11.4959 9.29594 11.4042C9.20421 11.3124 9.07979 11.2609 8.95007 11.2609H8.48702V5.06524H11.0996V5.44676C11.0996 5.57648 11.1512 5.70089 11.2429 5.79262C11.3346 5.88435 11.459 5.93589 11.5888 5.93589C11.7185 5.93589 11.8429 5.88435 11.9346 5.79262C12.0264 5.70089 12.0779 5.57648 12.0779 5.44676V4.57611C12.0779 4.51187 12.0652 4.44827 12.0407 4.38892C12.0161 4.32958 11.9801 4.27566 11.9346 4.23024C11.8892 4.18482 11.8353 4.14879 11.7759 4.12421C11.7166 4.09963 11.653 4.08698 11.5888 4.08698Z" fill="#828282"/>
<path d="M13.8714 13.7861C13.8714 14.0118 13.6878 14.1957 13.4621 14.1957H2.54149C2.43295 14.1955 2.32891 14.1523 2.25219 14.0755C2.17547 13.9987 2.13234 13.8946 2.13225 13.7861V2.53969C2.13225 2.31371 2.31584 2.13045 2.54149 2.13045H13.4621C13.6878 2.13045 13.8714 2.31371 13.8714 2.53969V13.7864V13.7861ZM13.4621 1.15219H2.54149C2.17364 1.15262 1.82097 1.29894 1.56086 1.55906C1.30074 1.81917 1.15442 2.17184 1.15399 2.53969V13.7864C1.15442 14.1543 1.30074 14.507 1.56086 14.7671C1.82097 15.0272 2.17364 15.1735 2.54149 15.1739H13.4621C13.8301 15.1735 14.1828 15.0271 14.4429 14.767C14.703 14.5068 14.8493 14.154 14.8496 13.7861V2.53969C14.8492 2.17184 14.7029 1.81917 14.4428 1.55906C14.1827 1.29894 13.83 1.15262 13.4621 1.15219Z" fill="#828282"/>
<path d="M3.0352 8.16305C3.0352 8.49899 2.90175 8.82118 2.6642 9.05873C2.42665 9.29628 2.10446 9.42973 1.76852 9.42973C1.43257 9.42973 1.11038 9.29628 0.872834 9.05873C0.635285 8.82118 0.501831 8.49899 0.501831 8.16305C0.501831 7.8271 0.635285 7.50491 0.872834 7.26737C1.11038 7.02982 1.43257 6.89636 1.76852 6.89636C2.10446 6.89636 2.42665 7.02982 2.6642 7.26737C2.90175 7.50491 3.0352 7.8271 3.0352 8.16305Z" fill="#3490DE"/>
<path d="M15.5019 8.16304C15.5019 8.49894 15.3684 8.82108 15.1309 9.0586C14.8934 9.29612 14.5712 9.42956 14.2353 9.42956C13.8994 9.42956 13.5773 9.29612 13.3398 9.0586C13.1022 8.82108 12.9688 8.49894 12.9688 8.16304C12.9688 7.82713 13.1022 7.50499 13.3398 7.26747C13.5773 7.02995 13.8994 6.89651 14.2353 6.89651C14.5712 6.89651 14.8934 7.02995 15.1309 7.26747C15.3684 7.50499 15.5019 7.82713 15.5019 8.16304Z" fill="#3490DE"/>
</g>
<defs>
<clipPath id="clip0">
<rect width="15" height="15" fill="white" transform="translate(0.501831 0.5)"/>
</clipPath>
</defs>
</svg>
