<svg width="16" height="18" viewBox="0 0 16 18" fill="none" xmlns="http://www.w3.org/2000/svg">
<path d="M6.89804 5.53508C7.04806 5.53508 7.19809 5.48194 7.31257 5.37529L11.2664 1.69103C11.324 1.64104 11.3702 1.58077 11.4022 1.51379C11.4342 1.44682 11.4514 1.37452 11.4528 1.30122C11.4542 1.22791 11.4398 1.15509 11.4103 1.0871C11.3808 1.01912 11.3369 0.957364 11.2813 0.905519C11.2256 0.853674 11.1593 0.812802 11.0864 0.785342C11.0134 0.757882 10.9352 0.744397 10.8565 0.74569C10.7779 0.746984 10.7003 0.76303 10.6284 0.792871C10.5565 0.822712 10.4918 0.865736 10.4381 0.919378L6.48351 4.60291C6.40188 4.6794 6.34636 4.77668 6.32394 4.88251C6.30152 4.98833 6.3132 5.09797 6.35751 5.19762C6.40183 5.29728 6.47679 5.38249 6.57298 5.44254C6.66916 5.50258 6.78226 5.53478 6.89804 5.53508ZM14.0052 4.33174L10.0701 7.99744L8.50887 6.54259L12.4444 2.87726C12.8577 2.49107 13.5907 2.49107 14.0052 2.87726C14.2119 3.07036 14.328 3.33195 14.328 3.60468C14.328 3.87741 14.2119 4.13901 14.0052 4.33211V4.33174ZM3.98931 13.6625L1.89518 14.159L2.42848 12.208L7.68021 7.31533L9.24143 8.76945L3.98931 13.6625ZM14.8342 2.10488C14.6232 1.90774 14.3722 1.75154 14.0959 1.64533C13.8196 1.53912 13.5235 1.485 13.2246 1.4861C12.9257 1.48501 12.6296 1.53913 12.3534 1.64535C12.0772 1.75156 11.8263 1.90775 11.6153 2.10488L1.48573 11.5419C1.4115 11.6111 1.35797 11.6977 1.33219 11.7931L0.516025 14.7799C0.49116 14.8717 0.492281 14.9679 0.519279 15.0591C0.546276 15.1503 0.598226 15.2335 0.670046 15.3004C0.741866 15.3673 0.831098 15.4157 0.929014 15.4408C1.02693 15.466 1.13018 15.467 1.22865 15.4439L4.43431 14.6835C4.53667 14.6591 4.62966 14.6096 4.70428 14.5404L14.8342 5.10339C15.2602 4.70535 15.4994 4.1662 15.4994 3.60414C15.4994 3.04207 15.2602 2.50292 14.8342 2.10488Z" fill="#828282"/>
<path d="M4.69119 17.2544C2.68655 17.2544 1.40912 16.4554 1.32678 16.4024C1.2006 16.3216 1.11403 16.1974 1.0861 16.0572C1.05818 15.917 1.09119 15.7722 1.17788 15.6546C1.26457 15.5371 1.39783 15.4564 1.54835 15.4304C1.69887 15.4044 1.85432 15.4351 1.9805 15.5159C2.09093 15.5854 4.65464 17.148 8.24683 15.213C11.8213 13.2877 15.0853 15.3718 15.2227 15.4618C15.2855 15.502 15.3391 15.5535 15.3804 15.6132C15.4218 15.6729 15.45 15.7396 15.4635 15.8095C15.477 15.8795 15.4755 15.9512 15.459 16.0205C15.4426 16.0899 15.4116 16.1556 15.3678 16.2137C15.324 16.2718 15.2682 16.3213 15.2037 16.3592C15.1393 16.3972 15.0674 16.4229 14.9922 16.4348C14.917 16.4467 14.8401 16.4446 14.7658 16.4286C14.6915 16.4127 14.6213 16.3832 14.5593 16.3418C14.4477 16.2697 11.7505 14.5674 8.82475 16.1439C7.26375 16.9849 5.85396 17.2544 4.69119 17.2544Z" fill="#3490DE"/>
</svg>
