<svg width="16" height="16" viewBox="0 0 16 16" fill="none" xmlns="http://www.w3.org/2000/svg">
<g clip-path="url(#clip0)">
<path d="M1.01066 10.309C1.29335 10.309 1.52192 10.5382 1.52192 10.8206V13.7177C1.52218 13.9185 1.60207 14.111 1.74406 14.253C1.88605 14.395 2.07856 14.4749 2.27937 14.4751H5.17677C5.24392 14.4751 5.31041 14.4883 5.37245 14.514C5.43449 14.5397 5.49086 14.5774 5.53834 14.6248C5.58583 14.6723 5.6235 14.7287 5.6492 14.7907C5.6749 14.8528 5.68812 14.9193 5.68812 14.9864C5.68812 15.0535 5.6749 15.12 5.6492 15.1821C5.6235 15.2441 5.58583 15.3005 5.53834 15.3479C5.49086 15.3954 5.43449 15.4331 5.37245 15.4588C5.31041 15.4845 5.24392 15.4977 5.17677 15.4977H2.27937C1.29824 15.4977 0.49939 14.6988 0.49939 13.7174V10.8206C0.49939 10.5382 0.728612 10.309 1.01066 10.309ZM14.987 10.309C15.2697 10.309 15.4983 10.5382 15.4983 10.8206V13.7177C15.4983 14.6991 14.6994 15.498 13.718 15.498H10.8213C10.6856 15.498 10.5555 15.4441 10.4596 15.3482C10.3637 15.2523 10.3098 15.1222 10.3098 14.9866C10.3098 14.8509 10.3637 14.7208 10.4596 14.6249C10.5555 14.529 10.6856 14.4751 10.8213 14.4751H13.7183C13.9191 14.4749 14.1116 14.395 14.2536 14.253C14.3956 14.111 14.4755 13.9185 14.4758 13.7177V10.8206C14.4758 10.5382 14.7043 10.3093 14.987 10.3093V10.309ZM13.7183 0.498749C14.6994 0.498749 15.4983 1.2976 15.4983 2.27905V5.17613C15.4983 5.31177 15.4444 5.44185 15.3485 5.53776C15.2526 5.63368 15.1225 5.68756 14.9869 5.68756C14.8512 5.68756 14.7211 5.63368 14.6252 5.53776C14.5293 5.44185 14.4754 5.31177 14.4754 5.17613V2.27905C14.4752 2.07825 14.3953 1.88574 14.2533 1.74375C14.1113 1.60175 13.9188 1.52187 13.718 1.52161H10.8206C10.685 1.52161 10.5549 1.46773 10.459 1.37182C10.3631 1.2759 10.3092 1.14582 10.3092 1.01018C10.3092 0.874539 10.3631 0.744455 10.459 0.648543C10.5549 0.552631 10.685 0.498749 10.8206 0.498749L13.7183 0.498749ZM5.17677 0.498749C5.3092 0.503479 5.43464 0.559416 5.52666 0.65478C5.61868 0.750145 5.6701 0.877495 5.6701 1.01002C5.6701 1.14254 5.61868 1.26989 5.52666 1.36525C5.43464 1.46062 5.3092 1.51655 5.17677 1.52128H2.2797C2.07883 1.52154 1.88627 1.60147 1.74427 1.74354C1.60227 1.8856 1.52242 2.07819 1.52225 2.27905V5.17645C1.52225 5.31209 1.46837 5.44218 1.37246 5.53809C1.27654 5.634 1.14646 5.68788 1.01082 5.68788C0.87518 5.68788 0.745096 5.634 0.649184 5.53809C0.553272 5.44218 0.49939 5.31209 0.49939 5.17645L0.49939 2.27873C0.49939 1.2976 1.29824 0.498749 2.2797 0.498749H5.17677Z" fill="#828282"/>
<path d="M7.50385 9.92491C6.16438 9.92491 5.07468 8.83488 5.07468 7.49541C5.07468 6.15529 6.16438 5.06559 7.50385 5.06559C8.84364 5.06559 9.93335 6.15529 9.93335 7.49541C9.93335 8.83488 8.84364 9.92458 7.50418 9.92458L7.50385 9.92491ZM12.2878 11.9269C12.3824 12.0039 12.4959 12.0407 12.6087 12.0407C12.7144 12.0407 12.8176 12.0079 12.9039 11.9469C12.9903 11.8858 13.0555 11.7995 13.0908 11.6998C13.126 11.6001 13.1294 11.4919 13.1006 11.3901C13.0718 11.2884 13.0121 11.1981 12.9299 11.1317L10.5131 9.18116C10.8036 8.66682 10.9563 8.08612 10.9562 7.49541C10.9562 5.5912 9.40741 4.04272 7.50385 4.04272C5.60029 4.04272 4.05182 5.59153 4.05182 7.49541C4.05182 9.39864 5.60062 10.9474 7.50385 10.9474C8.42693 10.9474 9.26524 10.5809 9.88542 9.98882L12.2878 11.9273V11.9269Z" fill="#3490DE"/>
</g>
<defs>
<clipPath id="clip0">
<rect width="15.0025" height="15.0025" fill="white" transform="translate(0.49939 0.498749)"/>
</clipPath>
</defs>
</svg>
