<svg width="195" height="156" viewBox="0 0 195 156" fill="none" xmlns="http://www.w3.org/2000/svg">
<path fill-rule="evenodd" clip-rule="evenodd" d="M157.833 146.912C157.833 146.912 175.84 138.173 178.936 133.615C182.032 129.057 177.481 128.799 177.481 128.799C177.481 128.799 185.516 121.106 184.386 117.868C183.255 114.629 179.037 117.723 179.037 117.723C179.037 117.723 184.259 106.278 181.823 105.14C177.285 103.021 170.92 115.201 170.92 115.201C170.92 115.201 172.288 109.909 169.162 110.082C164.45 110.341 164.645 122.311 164.645 122.311C164.645 122.311 164.113 117.721 161.273 119.213C156.177 121.887 157.833 146.912 157.833 146.912Z" fill="#355389"/>
<path fill-rule="evenodd" clip-rule="evenodd" d="M160.794 117.436C163.792 116.519 164.487 119.895 164.487 119.895C164.487 119.895 164.313 110.366 168.897 110.106C171.937 109.933 170.606 115.249 170.606 115.249C170.606 115.249 176.798 103.012 181.212 105.141L157.856 146.912C157.692 143.995 156.48 118.755 160.794 117.436Z" fill="#466EB6"/>
<path fill-rule="evenodd" clip-rule="evenodd" d="M158.232 146.728C158.232 146.728 172.95 148.486 176.761 146.919C180.573 145.354 177.841 143.419 177.841 143.419C177.841 143.419 186.024 141.873 186.656 139.46C187.287 137.048 183.381 137.285 183.381 137.285C183.381 137.285 191.358 132.356 190.309 130.713C188.355 127.651 179.362 132.581 179.362 132.581C179.362 132.581 182.397 129.894 180.378 128.779C177.334 127.097 172.517 134.46 172.517 134.46C172.517 134.46 172.816 132.645 170.431 132.443C166.15 132.083 158.232 146.728 158.232 146.728Z" fill="#355389"/>
<path fill-rule="evenodd" clip-rule="evenodd" d="M170.039 132.013C172.379 132.217 172.291 134.546 172.291 134.546C172.291 134.546 177.017 127.076 180.004 128.782C181.985 129.914 179.007 132.64 179.007 132.64C179.007 132.64 187.83 127.638 189.747 130.745L158.232 146.913C159.304 145.053 166.116 131.67 170.039 132.013Z" fill="#13375B"/>
<path fill-rule="evenodd" clip-rule="evenodd" d="M185.808 147.569C185.808 147.206 185.629 146.912 185.408 146.912H3.11851C2.84665 146.912 2.62628 147.206 2.62628 147.569C2.62628 147.931 2.84665 148.225 3.11851 148.225H185.408C185.629 148.225 185.808 147.931 185.808 147.569Z" fill="#184655"/>
<path fill-rule="evenodd" clip-rule="evenodd" d="M42.3446 146.912C42.3446 146.912 19.0674 135.578 15.0643 129.667C11.0613 123.756 16.9458 123.421 16.9458 123.421C16.9458 123.421 6.55831 113.445 8.01969 109.245C9.48117 105.045 14.9347 109.059 14.9347 109.059C14.9347 109.059 8.18296 94.2147 11.3323 92.7388C17.1982 89.9894 25.4271 105.787 25.4271 105.787C25.4271 105.787 23.6587 98.9245 27.6981 99.1478C33.7898 99.4836 33.5381 115.007 33.5381 115.007C33.5381 115.007 34.2261 109.055 37.8977 110.989C44.4854 114.457 42.3446 146.912 42.3446 146.912Z" fill="#355389"/>
<path fill-rule="evenodd" clip-rule="evenodd" d="M38.6267 109.441C35.4551 107.558 33.035 111.99 33.035 111.99C33.035 111.99 33.3392 99.5165 27.3234 99.1791C23.3344 98.9549 25.0808 105.849 25.0808 105.849C25.0808 105.849 16.9544 89.9781 11.1616 92.7403L41.8137 146.912C42.0304 143.129 42.8404 111.943 38.6267 109.441Z" fill="#466EB6"/>
<path fill-rule="evenodd" clip-rule="evenodd" d="M41.3636 147.095C41.3636 147.095 22.4402 149.458 17.5406 147.352C12.6409 145.246 16.1523 142.645 16.1523 142.645C16.1523 142.645 5.6316 140.566 4.81987 137.321C4.00814 134.077 9.03072 134.396 9.03072 134.396C9.03072 134.396 -1.22657 127.767 0.122252 125.556C2.63465 121.438 14.1979 128.068 14.1979 128.068C14.1979 128.068 10.2946 124.455 12.8902 122.955C16.8046 120.694 22.998 130.595 22.998 130.595C22.998 130.595 22.6133 128.154 25.6804 127.884C31.1837 127.399 41.3636 147.095 41.3636 147.095Z" fill="#355389"/>
<path fill-rule="evenodd" clip-rule="evenodd" d="M25.8351 126.458C22.8119 126.726 23.2045 130.754 23.2045 130.754C23.2045 130.754 17.7997 120.344 13.2244 123.076C10.6872 124.59 14.2061 128.127 14.2061 128.127C14.2061 128.127 3.13295 121.729 0.656555 125.788L41.3636 146.912C39.9795 144.482 30.9019 126.012 25.8351 126.458Z" fill="#13375B"/>
<path fill-rule="evenodd" clip-rule="evenodd" d="M151.01 129.185H51.5267C47.7269 129.185 44.6465 126.466 44.6465 123.112V119.501C44.6465 116.147 47.7269 113.428 51.5267 113.428H151.01C146.46 117.818 146.38 124.529 150.828 129.001L151.01 129.185Z" fill="#50BFA5"/>
<path fill-rule="evenodd" clip-rule="evenodd" d="M149.693 115.397H99.4917C96.0351 115.397 93.2323 118.19 93.2323 121.635C93.2323 125.079 96.0351 127.872 99.4917 127.872H149.697C147.352 124.046 147.356 119.214 149.693 115.397Z" fill="#FAE0B2"/>
<path fill-rule="evenodd" clip-rule="evenodd" d="M166.111 128.529H39.9234C36.0048 128.529 32.8282 131.529 32.8282 135.231V140.868C32.8282 144.569 36.0048 147.569 39.9234 147.569H166.111L166.045 147.505C160.646 142.197 160.676 133.802 166.111 128.529Z" fill="#C25076"/>
<path fill-rule="evenodd" clip-rule="evenodd" d="M163.485 131.155H96.3539C92.4542 131.155 89.293 134.241 89.293 138.048C89.293 141.856 92.4542 144.943 96.3539 144.943H163.484C161.016 140.673 161.02 135.421 163.485 131.155Z" fill="#FAE0B2"/>
<path fill-rule="evenodd" clip-rule="evenodd" d="M125.404 138.377H119.734C118.514 138.377 117.525 139.187 117.525 140.185V140.347H125.404V138.377Z" fill="#13375B"/>
<path fill-rule="evenodd" clip-rule="evenodd" d="M120.151 138.381C121.39 138.38 123.239 139.398 124.282 140.653L136.57 155.448L143.788 155.444L132.101 141.374C130.726 139.718 128.287 138.376 126.654 138.377L120.151 138.381Z" fill="#355389"/>
<path fill-rule="evenodd" clip-rule="evenodd" d="M39.0492 34.4502C39.0142 34.5492 38.9207 34.6215 38.8079 34.6367C38.6951 34.6519 38.5826 34.6073 38.5178 34.5218L37.278 32.8869L35.0982 32.8913C34.9842 32.8916 34.8799 32.8327 34.8292 32.7396C34.7785 32.6464 34.7902 32.5351 34.8594 32.4525L36.1815 30.8721L35.5032 28.9829C35.4677 28.8842 35.4969 28.7756 35.5783 28.7028C35.6597 28.6301 35.7795 28.6059 35.8871 28.6402L37.944 29.2985L39.7045 28.1265C39.7966 28.0652 39.9189 28.0569 40.02 28.1051C40.121 28.1532 40.1834 28.2496 40.1807 28.3535L40.1298 30.3407L41.8961 31.5054C41.9885 31.5664 42.035 31.6699 42.016 31.7724C41.9969 31.8749 41.9158 31.9587 41.8065 31.9885L39.7183 32.5585L39.0492 34.4502Z" fill="#F47458"/>
<path fill-rule="evenodd" clip-rule="evenodd" d="M114 11.7056C114.257 10.7788 115.088 10.2937 115.998 10.5462C116.942 10.8084 117.37 11.6429 117.13 12.5746C116.878 13.4841 116.059 13.9915 115.114 13.7293C114.187 13.472 113.748 12.6152 114 11.7056ZM115.124 9.41866C115.265 9.0551 115.216 7.75237 117.027 6.49976C117.771 5.99055 118.381 5.55714 118.546 4.96246C118.831 3.93666 117.751 3.44412 116.676 3.4492C116.12 3.45179 115.665 3.00582 115.648 2.44976C115.629 1.88478 116.067 1.4115 116.633 1.384C117.249 1.35391 117.975 1.41361 118.738 1.62529C121.046 2.26606 121.741 3.83403 121.339 5.28557C120.97 6.61465 119.905 7.26089 119.036 7.81102C117.575 8.73955 117.575 9.77445 117.45 10.0643L115.124 9.41866Z" fill="#F7CC7F"/>
<path fill-rule="evenodd" clip-rule="evenodd" d="M173.798 33.1488L174.616 34.5369C174.704 34.6873 174.923 34.6686 174.986 34.5052L175.568 32.9975L177.112 32.6318C177.279 32.5922 177.33 32.3737 177.197 32.2621L175.973 31.2317L176.11 29.6175C176.125 29.4426 175.937 29.3263 175.792 29.4206L174.455 30.2915L172.995 29.6596C172.836 29.5911 172.67 29.7377 172.713 29.9076L173.111 31.4762L172.071 32.7C171.958 32.8325 172.044 33.0395 172.215 33.0501L173.798 33.1488Z" fill="#F79C8D"/>
<path fill-rule="evenodd" clip-rule="evenodd" d="M134.555 11.9402L132.626 10.6317L133.16 8.37695L133.788 8.51274L133.348 10.3681L135.342 11.7207L134.315 14.1421L136.566 15.3022L135.541 17.4399L134.772 17.5689L135.73 15.5696L133.502 14.4213L134.555 11.9402Z" fill="#F48C7F"/>
<path fill-rule="evenodd" clip-rule="evenodd" d="M47.8837 21.5083L49.0064 22.4881L50.4036 21.8812L51.5836 23.0678L52.8706 21.9666L54.2648 23.2502L55.5761 22.381L57.1212 23.3986L56.7326 23.9782L55.5773 23.2174L54.1936 24.1346L52.8533 22.9007L51.5448 24.0203L50.2427 22.7109L48.8783 23.3035L47.8377 22.3953L47.0237 22.9703L46.6161 22.4036L47.8837 21.5083Z" fill="#F7CC7F"/>
<path fill-rule="evenodd" clip-rule="evenodd" d="M179.343 43.0498C180.913 44.6813 180.965 47.3829 179.46 49.0839C177.953 50.7849 175.46 50.8412 173.889 49.2097C172.319 47.5782 172.267 44.8767 173.773 43.1757C175.28 41.4745 177.773 41.4183 179.343 43.0498Z" fill="#FFF3D9"/>
<path fill-rule="evenodd" clip-rule="evenodd" d="M179.114 46.2455L177.333 46.7327L176.774 48.3146C176.728 48.4424 176.538 48.4687 176.451 48.3591L175.381 47.0022L173.517 47.0181C173.366 47.0194 173.28 46.8665 173.37 46.7594L174.49 45.4337L173.896 43.8617C173.848 43.7348 173.985 43.614 174.127 43.6574L175.891 44.1948L177.388 43.2074C177.509 43.1276 177.68 43.2058 177.677 43.3398L177.648 44.9977L179.166 45.9594C179.289 46.0371 179.258 46.2062 179.114 46.2455Z" fill="#FED333"/>
<path fill-rule="evenodd" clip-rule="evenodd" d="M60.5504 9.39805C58.2996 10.6178 58.7439 13.8767 61.2527 14.5217C61.7032 14.6377 62.0905 14.9141 62.3521 15.2837L63.2524 16.5557C63.5005 16.9062 63.9884 17.0155 64.3735 16.807L65.2261 16.3449C65.6111 16.1361 65.7639 15.6795 65.5773 15.2958C64.8962 13.8952 64.5392 13.4259 64.7823 12.6088C65.4939 10.2188 62.8017 8.17789 60.5504 9.39805Z" fill="#F7CC7F"/>
<path fill-rule="evenodd" clip-rule="evenodd" d="M62.8274 10.6481C62.8156 10.8478 62.9253 11.0579 63.0357 11.3051C63.1913 11.1207 63.3685 10.8966 63.367 10.6641C63.3661 10.5011 63.2329 10.3191 63.0726 10.3355C63.0552 10.3373 62.8357 10.5079 62.8274 10.6481ZM60.9415 12.3974C61.1124 12.4843 61.3388 12.467 61.6331 12.3432C61.5004 12.1417 61.3507 11.9715 61.1473 11.8863C60.6882 11.6943 60.6547 12.2515 60.9415 12.3974ZM63.2831 15.3544C62.6495 14.114 61.926 12.8244 61.7084 12.4632C60.3585 13.0456 60.3483 11.401 61.2012 11.7578C61.4443 11.8593 61.6138 12.0562 61.7621 12.2855C62.2047 12.076 62.604 11.781 62.9343 11.4205C62.7947 11.1084 62.6739 10.8775 62.688 10.6398C62.7092 10.2808 63.0703 10.0525 63.3408 10.2952C63.4422 10.3864 63.5059 10.5274 63.5066 10.6633C63.5084 10.9531 63.2924 11.2244 63.0988 11.446C63.5505 12.4512 64.0332 13.4541 64.5361 14.4318L64.4119 14.4958C63.9171 13.5339 63.4418 12.5476 62.9964 11.5587C62.6656 11.9088 62.2714 12.1967 61.8363 12.405C62.1131 12.8672 62.8126 14.1263 63.4074 15.291L63.2831 15.3544Z" fill="white"/>
<path fill-rule="evenodd" clip-rule="evenodd" d="M62.3737 15.1235C62.3813 15.1347 62.3899 15.1452 62.3973 15.1567L63.2852 16.5278C63.53 16.9057 64.0111 17.0235 64.391 16.7987L65.2319 16.3006C65.6116 16.0756 65.7624 15.5833 65.5783 15.1697C65.2795 14.498 65.0442 14.0253 64.8958 13.6296L62.3737 15.1235Z" fill="#96D9C9"/>
<path fill-rule="evenodd" clip-rule="evenodd" d="M58.5726 8.94907L57.2282 7.66431C57.0981 7.53989 57.0847 7.32359 57.1982 7.18107C57.3117 7.03855 57.5092 7.02375 57.6394 7.14817L58.9837 8.43282C59.1138 8.55724 59.1273 8.77354 59.0138 8.91606C58.8997 9.05939 58.7022 9.07267 58.5726 8.94907Z" fill="#FAE0B2"/>
<path fill-rule="evenodd" clip-rule="evenodd" d="M58.1855 12.3824L56.2337 12.9601C56.0539 13.0132 55.8688 12.8976 55.8199 12.7016C55.7712 12.5058 55.8772 12.3036 56.0569 12.2505L58.0089 11.6728C58.1885 11.6197 58.3738 11.7355 58.4225 11.9315C58.4713 12.1272 58.3655 12.329 58.1855 12.3824Z" fill="#FAE0B2"/>
<path fill-rule="evenodd" clip-rule="evenodd" d="M58.0016 17.5427C57.807 17.4782 57.7234 17.3146 57.8148 17.1773C58.1566 16.6636 58.57 16.1707 59.0434 15.7121C59.17 15.5895 59.4134 15.5625 59.5873 15.6518C59.7611 15.7411 59.7994 15.9129 59.6728 16.0356C59.2285 16.4661 58.8405 16.9287 58.5195 17.4108C58.4287 17.5474 58.1972 17.6075 58.0016 17.5427Z" fill="#FAE0B2"/>
<path fill-rule="evenodd" clip-rule="evenodd" d="M62.2061 7.06288C62.1047 7.07624 62.0151 6.96894 62.0058 6.8233C61.9618 6.13161 61.8675 5.44429 61.7253 4.7805C61.6954 4.64076 61.7498 4.4924 61.8472 4.44951C61.9445 4.40654 62.0477 4.48495 62.0776 4.62477C62.2272 5.32354 62.3266 6.04703 62.3729 6.77505C62.3821 6.92151 62.3068 7.0498 62.2061 7.06288Z" fill="#FAE0B2"/>
<path fill-rule="evenodd" clip-rule="evenodd" d="M64.4168 8.90033C64.2955 8.75307 64.3279 8.54386 64.4891 8.4329L66.3844 7.13082C66.5458 7.01997 66.7749 7.04952 66.8963 7.19689C67.0175 7.34415 66.9852 7.55336 66.8239 7.66432L64.9286 8.9664C64.7676 9.0769 64.5385 9.04793 64.4168 8.90033Z" fill="#FAE0B2"/>
<path fill-rule="evenodd" clip-rule="evenodd" d="M68.7875 11.6157C68.768 11.6246 68.7472 11.6303 68.7254 11.6325C68.2079 11.6828 67.6847 11.664 67.1703 11.5767C67.0433 11.5549 66.9544 11.4098 66.9719 11.2523C66.9892 11.0948 67.1063 10.9846 67.2333 11.0061C67.7149 11.088 68.2047 11.1056 68.6891 11.0584C68.8169 11.046 68.9287 11.1644 68.9387 11.3229C68.9467 11.4545 68.8826 11.5723 68.7875 11.6157Z" fill="#FAE0B2"/>
<path fill-rule="evenodd" clip-rule="evenodd" d="M153.848 11.0034L153.162 12.3524C151.54 15.5432 149.35 18.4431 146.704 20.9068L146.414 21.1773C146.414 21.1773 146.974 23.8997 149.548 23.4219C151.543 20.1785 153.844 17.2822 156.569 14.6076L157.576 13.7345L153.848 11.0034Z" fill="#466EB6"/>
<path fill-rule="evenodd" clip-rule="evenodd" d="M157.558 14.2335C157.425 14.4605 156.592 13.9337 155.698 13.0568C154.804 12.1799 154.178 11.2831 154.311 11.0561C154.443 10.829 155.285 11.3577 156.179 12.2347C157.073 13.1115 157.69 14.0064 157.558 14.2335Z" fill="#86B1F2"/>
<path fill-rule="evenodd" clip-rule="evenodd" d="M157.573 14.2401L157.576 14.2349C157.576 14.2349 155.558 12.5685 155.19 11.6599L154.949 12.1093C155.172 12.3988 155.448 12.7167 155.757 13.0321C156.622 13.9163 157.429 14.4515 157.573 14.2401Z" fill="#355389"/>
<path fill-rule="evenodd" clip-rule="evenodd" d="M153.636 18.1887C153.335 18.2818 151.999 18.5733 150.817 16.9124C150.665 17.0903 150.511 17.2666 150.354 17.4413C151.163 18.4744 152.049 18.7833 152.666 18.8565C152.763 18.868 152.893 18.8787 152.991 18.8821C153.203 18.6489 153.418 18.4177 153.636 18.1887Z" fill="#B75742"/>
<path fill-rule="evenodd" clip-rule="evenodd" d="M151.01 16.6013L150.271 13.6296L149.895 14.5343L149.04 14.3862L150.528 16.9125L151.01 16.6013Z" fill="#B75742"/>
<path fill-rule="evenodd" clip-rule="evenodd" d="M150.353 17.3791L147.727 16.9124L148.339 17.6552L147.728 18.2255L150.27 18.0059L150.353 17.3791Z" fill="#B75742"/>
<path fill-rule="evenodd" clip-rule="evenodd" d="M149.776 17.6446C149.529 17.1488 149.882 16.566 150.564 16.3429C151.245 16.12 151.998 16.3413 152.245 16.8373C152.491 17.3331 152.138 17.916 151.457 18.139C150.775 18.3619 150.022 18.1406 149.776 17.6446Z" fill="#F47458"/>
<path fill-rule="evenodd" clip-rule="evenodd" d="M159.717 29.4948L160.85 29.0842L161.647 31.035L163.37 30.6616L164.182 32.0134L164.798 31.5575L163.713 29.7495L162.079 30.1035L161.251 28.074L159.545 28.6919L159.717 29.4948Z" fill="#50BFA5"/>
<path fill-rule="evenodd" clip-rule="evenodd" d="M176.13 99.5111L177.264 99.1689L178.06 100.795L179.785 100.483L180.596 101.609L181.212 101.23L180.127 99.7236L178.494 100.018L177.665 98.3267L175.96 98.8421L176.13 99.5111Z" fill="#F7CC7F"/>
<path fill-rule="evenodd" clip-rule="evenodd" d="M94.4598 6.00599C93.9922 8.49333 91.741 10.1015 89.4314 9.59795C87.1219 9.0944 85.6282 6.66978 86.0958 4.18244C86.5635 1.6951 88.8147 0.0869357 91.1242 0.590585C93.4338 1.09414 94.9275 3.51865 94.4598 6.00599Z" fill="#F7CC7F"/>
<path fill-rule="evenodd" clip-rule="evenodd" d="M88.0264 5.09448C87.772 6.57701 88.5841 8.02219 89.8409 8.32232C91.0967 8.62245 92.3214 7.66393 92.5758 6.1814L88.0264 5.09448Z" fill="#EFEFEF"/>
<path fill-rule="evenodd" clip-rule="evenodd" d="M29.3014 71.532C28.8377 73.0848 28.2157 74.0113 27.6374 74.0113C27.0591 74.0113 26.437 73.0848 25.9733 71.532C25.4559 69.8001 25.171 67.4544 25.171 64.9271C25.171 62.3997 25.4559 60.0541 25.9733 58.322C26.437 56.7694 27.0591 55.8424 27.6374 55.8424C28.2157 55.8424 28.8377 56.7694 29.3014 58.322C29.8188 60.0541 30.1038 62.3997 30.1038 64.9271C30.1038 67.4544 29.8188 69.8001 29.3014 71.532ZM28.8163 56.0841C28.4571 55.606 28.0605 55.3635 27.6374 55.3635C25.2331 55.3635 24.692 62.446 24.692 64.9272C24.692 67.7575 25.0058 70.1912 25.5994 71.9653C26.1461 73.5993 26.8759 74.4991 27.6543 74.4991C28.4805 74.4991 29.2357 73.4652 29.7807 71.587C31.1714 66.7945 30.6576 58.5359 28.8163 56.0841Z" fill="#B75742"/>
<path fill-rule="evenodd" clip-rule="evenodd" d="M35.6844 69.0248C35.5392 69.3836 35.0398 69.5732 34.2399 69.5732H34.2392C31.4367 69.5728 25.06 67.187 21.0414 63.3025C19.5088 61.8211 19.3644 61.0714 19.5132 60.7034C19.6578 60.3458 20.156 60.1568 20.9539 60.1568C22.4458 60.1568 24.7769 60.8015 27.1896 61.8814C29.9135 63.1006 32.3874 64.7133 34.1553 66.4224C35.6893 67.905 35.8334 68.656 35.6844 69.0248ZM35.8076 67.5718C33.885 64.3818 24.9987 59.634 20.9507 59.634C20.0174 59.634 19.4089 59.8902 19.1422 60.3952C18.8927 60.8673 18.9764 61.4555 19.391 62.1434C21.319 65.3424 30.1926 70.1037 34.2266 70.1037C35.1682 70.1037 35.7832 69.8431 36.0546 69.3292C36.3064 68.8528 36.2232 68.2615 35.8076 67.5718Z" fill="#B75742"/>
<path fill-rule="evenodd" clip-rule="evenodd" d="M31.407 65.3373C28.5731 67.3147 25.261 68.8479 22.5471 69.4386C21.8969 69.5801 21.3259 69.6519 20.85 69.6519H20.8499C20.1322 69.6518 19.664 69.4878 19.4958 69.1778C19.3317 68.8748 19.4054 68.4572 19.7153 67.9369C20.5322 66.5646 22.9605 64.5955 25.9016 62.9203C29.0622 61.1199 32.1328 60.0451 34.1154 60.0451C35.0256 60.0451 35.513 60.2841 35.5637 60.7555C35.6658 61.7056 34.0343 63.504 31.407 65.3373ZM35.8904 60.2908C35.6122 59.7774 35.0053 59.5171 34.0867 59.5171C32.2514 59.5171 29.1298 60.6131 25.9399 62.3775C22.7529 64.1404 20.2157 66.1717 19.3185 67.6788C18.9088 68.3671 18.8267 68.9482 19.0748 69.406C19.3468 69.9075 19.9469 70.1618 20.8587 70.1618C24.8639 70.1618 33.7101 65.3161 35.6486 62.0604C36.0658 61.3598 36.1472 60.7643 35.8904 60.2908Z" fill="#B75742"/>
<path fill-rule="evenodd" clip-rule="evenodd" d="M28.889 64.5135C28.889 65.42 28.3011 66.1549 27.5759 66.1549C26.8506 66.1549 26.2627 65.42 26.2627 64.5135C26.2627 63.6069 26.8506 62.8721 27.5759 62.8721C28.3011 62.8721 28.889 63.6069 28.889 64.5135Z" fill="#F47458"/>
<path fill-rule="evenodd" clip-rule="evenodd" d="M26.9192 57.291C26.9192 57.8349 26.4782 58.2758 25.9343 58.2758C25.3904 58.2758 24.9495 57.8349 24.9495 57.291C24.9495 56.7471 25.3904 56.3062 25.9343 56.3062C26.4782 56.3062 26.9192 56.7471 26.9192 57.291Z" fill="#F47458"/>
<path fill-rule="evenodd" clip-rule="evenodd" d="M30.8586 71.0792C30.8586 71.6232 30.4176 72.0642 29.8738 72.0642C29.3298 72.0642 28.8889 71.6232 28.8889 71.0792C28.8889 70.5354 29.3298 70.0945 29.8738 70.0945C30.4176 70.0945 30.8586 70.5354 30.8586 71.0792Z" fill="#F47458"/>
<path fill-rule="evenodd" clip-rule="evenodd" d="M21.6667 66.4832C21.6667 67.0271 21.2258 67.468 20.6819 67.468C20.1379 67.468 19.697 67.0271 19.697 66.4832C19.697 65.9393 20.1379 65.4983 20.6819 65.4983C21.2258 65.4983 21.6667 65.9393 21.6667 66.4832Z" fill="#F47458"/>
<path fill-rule="evenodd" clip-rule="evenodd" d="M36.1112 62.2154C36.1112 62.578 35.6703 62.872 35.1264 62.872C34.5825 62.872 34.1415 62.578 34.1415 62.2154C34.1415 61.8528 34.5825 61.5588 35.1264 61.5588C35.6703 61.5588 36.1112 61.8528 36.1112 62.2154Z" fill="#F47458"/>
<path fill-rule="evenodd" clip-rule="evenodd" d="M24.2929 60.5742C24.2929 61.118 23.852 61.5591 23.3081 61.5591C22.7642 61.5591 22.3232 61.118 22.3232 60.5742C22.3232 60.0303 22.7642 59.5894 23.3081 59.5894C23.852 59.5894 24.2929 60.0303 24.2929 60.5742Z" fill="#F47458"/>
<path fill-rule="evenodd" clip-rule="evenodd" d="M192.374 77.9959L188.644 79.2863L188.434 78.6071L192.164 77.3167L192.374 77.9959Z" fill="#9BC1F9"/>
<path fill-rule="evenodd" clip-rule="evenodd" d="M183.794 74.0335L183.182 73.6613L185.196 69.4375L185.808 69.8091L183.794 74.0335Z" fill="#9BC1F9"/>
<path fill-rule="evenodd" clip-rule="evenodd" d="M189.239 89.1344L186.465 86.2391L186.973 85.8516L189.747 88.7469L189.239 89.1344Z" fill="#9BC1F9"/>
<path fill-rule="evenodd" clip-rule="evenodd" d="M186.503 85.9167L179.747 87.8214L174.646 83.3962L175.076 82.8558L179.91 87.0487L185.958 85.3425L187.685 78.8441L183.222 73.8563L183.714 73.377L188.434 78.6524L186.503 85.9167Z" fill="#9BC1F9"/>
<path fill-rule="evenodd" clip-rule="evenodd" d="M175.866 82.569C176.167 83.5939 175.719 84.7189 174.865 85.0818C174.011 85.4448 173.073 84.9077 172.771 83.8816C172.469 82.8567 172.916 81.7318 173.771 81.3688C174.626 81.007 175.563 81.543 175.866 82.569Z" fill="#96D9C9"/>
<path fill-rule="evenodd" clip-rule="evenodd" d="M181.136 86.9455C181.378 87.7997 181.02 88.7383 180.336 89.0399C179.653 89.3424 178.903 88.8947 178.661 88.0405C178.419 87.1853 178.778 86.2477 179.461 85.9461C180.145 85.6436 180.895 86.0913 181.136 86.9455Z" fill="#96D9C9"/>
<path fill-rule="evenodd" clip-rule="evenodd" d="M187.702 84.9756C187.944 85.8307 187.586 86.7681 186.903 87.0706C186.219 87.3722 185.469 86.9245 185.227 86.0704C184.985 85.2163 185.344 84.2779 186.027 83.9764C186.71 83.6739 187.461 84.1215 187.702 84.9756Z" fill="#96D9C9"/>
<path fill-rule="evenodd" clip-rule="evenodd" d="M191.604 88.9165C191.967 89.7705 191.43 90.708 190.404 91.0105C189.379 91.312 188.254 90.8653 187.891 90.0103C187.528 89.1562 188.065 88.2188 189.091 87.9163C190.116 87.6138 191.241 88.0614 191.604 88.9165Z" fill="#96D9C9"/>
<path fill-rule="evenodd" clip-rule="evenodd" d="M194.906 77.097C195.208 77.952 194.76 78.8893 193.906 79.1918C193.052 79.4942 192.113 79.0466 191.812 78.1917C191.509 77.3377 191.957 76.4004 192.811 76.0979C193.666 75.7955 194.603 76.2431 194.906 77.097Z" fill="#96D9C9"/>
<path fill-rule="evenodd" clip-rule="evenodd" d="M187.684 68.5619C187.985 69.4164 187.538 70.354 186.683 70.6563C185.829 70.9584 184.892 70.5108 184.589 69.6564C184.287 68.8021 184.735 67.8644 185.589 67.5622C186.444 67.2599 187.381 67.7075 187.684 68.5619Z" fill="#96D9C9"/>
<path fill-rule="evenodd" clip-rule="evenodd" d="M190.31 77.9725C190.612 78.9985 190.164 80.1235 189.31 80.4865C188.456 80.8483 187.517 80.3111 187.216 79.2862C186.913 78.2613 187.361 77.1363 188.215 76.7733C189.07 76.4103 190.007 76.9475 190.31 77.9725Z" fill="#96D9C9"/>
<path fill-rule="evenodd" clip-rule="evenodd" d="M185.057 72.7205C185.359 73.7456 184.911 74.8705 184.057 75.2335C183.203 75.5964 182.265 75.0593 181.963 74.0333C181.661 73.0084 182.108 71.8833 182.962 71.5207C183.818 71.1581 184.755 71.6952 185.057 72.7205Z" fill="#96D9C9"/>
<path fill-rule="evenodd" clip-rule="evenodd" d="M184.339 61.5586L181.869 61.0201L182.393 58.9324L183.13 59.135L182.809 60.411L184.495 60.7783L184.339 61.5586Z" fill="#F47458"/>
<path fill-rule="evenodd" clip-rule="evenodd" d="M31.9853 81.9124L31.481 83.3784L29.1407 82.7888L28.1512 84.8384L26.331 84.6965L26.2627 85.6629L28.6971 85.8517L29.6349 83.91L32.0695 84.5236L32.8284 82.3161L31.9853 81.9124Z" fill="#50BFA5"/>
<path fill-rule="evenodd" clip-rule="evenodd" d="M30.202 42.5889L31.4038 42.711L31.4172 44.6312L33.152 45.0227L33.4013 46.458L34.1414 46.3341L33.8081 44.4144L32.164 44.0435L32.1501 42.0459L30.3415 41.8621L30.202 42.5889Z" fill="#9BC1F9"/>
<path fill-rule="evenodd" clip-rule="evenodd" d="M59.6607 68.1406C59.1946 68.3161 57.5211 68.4121 57.0828 68.2521C56.6444 68.0922 55.9784 66.3951 55.9784 66.3951C55.9784 66.3951 56.178 65.89 56.2209 65.5059C56.7115 66.0405 58.7884 65.8032 59.2569 66.1038C59.765 66.4299 60.1265 67.965 59.6607 68.1406ZM79.0936 71.9776L75.7292 82.7878L65.1371 67.288L65.1401 67.275C65.1401 67.275 61.253 65.2987 60.2782 65.1145C59.4079 64.9499 56.6156 64.686 56.1782 65.153C56.1566 65.121 56.1289 65.0964 56.0898 65.0864C55.7197 64.9923 55.0378 66.2438 54.9424 66.5469C54.8473 66.85 55.6147 68.6125 55.684 68.7453C55.7533 68.8783 55.4865 68.9498 55.1493 68.8214C54.8121 68.6934 53.7524 67.472 53.7524 67.472C53.7524 67.472 53.6511 65.4972 53.0147 65.5082C52.3784 65.5192 52.9571 67.9884 52.9571 67.9884L53.5745 68.8154L52.6604 68.2616C52.6604 68.2616 52.0343 66.9324 51.8679 67.0021C51.7017 67.0721 51.4788 67.746 51.826 68.4435C52.1731 69.1411 52.9232 69.8987 52.9232 69.8987L54.3092 70.6118C54.3092 70.6118 52.6986 70.4721 52.2234 70.1118C51.748 69.7516 51.5557 70.2574 51.9317 70.6865C52.3076 71.1155 54.4311 71.8494 55.7738 71.9937C57.1164 72.1379 61.3025 72.032 61.9037 71.921C62.3929 71.8308 63.303 71.6891 63.7564 71.9442C64.3513 73.6835 69.5189 92.5235 75.7714 94.7217C75.7714 94.7217 78.6586 94.3432 81.9482 86.8555C85.2379 79.3678 87.002 74.866 87.002 74.866L79.0936 71.9776Z" fill="#F7A491"/>
<path fill-rule="evenodd" clip-rule="evenodd" d="M144.138 64.6349C144.596 64.3183 146.68 64.4837 147.152 63.9325C147.207 64.3149 147.425 64.8127 147.425 64.8127C147.425 64.8127 146.817 66.5319 146.385 66.7068C145.953 66.8818 144.277 66.8439 143.806 66.6845C143.333 66.5252 143.642 64.9786 144.138 64.6349ZM116.713 74.3513C116.713 74.3513 118.631 78.7898 122.178 86.1597C125.726 93.5285 128.623 93.8074 128.623 93.8074C134.795 91.3945 139.31 72.3866 139.843 70.6278C140.288 70.3571 141.202 70.4672 141.694 70.5405C142.299 70.6306 146.486 70.5917 147.823 70.4011C149.16 70.2104 151.257 69.4035 151.617 68.9617C151.978 68.52 151.769 68.0211 151.306 68.3975C150.844 68.7741 149.239 68.9694 149.239 68.9694L150.6 68.2087C150.6 68.2087 151.323 67.4257 151.646 66.7165C151.968 66.0074 151.723 65.3416 151.554 65.2775C151.385 65.2135 150.806 66.5635 150.806 66.5635L149.912 67.1486L150.499 66.3008C150.499 66.3008 150.992 63.8131 150.356 63.8241C149.72 63.835 149.686 65.8123 149.686 65.8123C149.686 65.8123 148.67 67.0696 148.337 67.2092C148.005 67.3491 147.735 67.2868 147.801 67.1516C147.865 67.0165 148.571 65.2285 148.466 64.9288C148.359 64.6291 147.635 63.4021 147.268 63.509C147.229 63.5202 147.203 63.5458 147.182 63.5785C146.729 63.127 143.947 63.4873 143.083 63.6818C142.115 63.8996 138.299 66.0093 138.299 66.0093L138.302 66.022L128.252 81.8782L124.516 71.1916L116.713 74.3513Z" fill="#F7A491"/>
<path fill-rule="evenodd" clip-rule="evenodd" d="M99.7979 101.805C99.7979 101.805 95.0999 99.3582 88.6912 97.4463C80.106 94.8858 68.5428 93.1894 61.9799 98.6962C58.1202 101.934 98.0528 106.205 98.0528 106.205L99.7979 101.805Z" fill="#13375B"/>
<path fill-rule="evenodd" clip-rule="evenodd" d="M143.131 100.963C143.131 100.963 139.297 95.5777 129.433 95.7023C125.592 95.7513 120.268 96.4818 115.415 97.4006C106.759 99.0398 98.5962 101.796 98.5962 101.796L97.8283 106.205L143.131 100.963Z" fill="#13375B"/>
<path fill-rule="evenodd" clip-rule="evenodd" d="M87.3232 109.018L105.004 117.367L118.838 106.644L114.3 97.0137L89.2317 98.5406L87.3232 109.018Z" fill="#13375B"/>
<path fill-rule="evenodd" clip-rule="evenodd" d="M91.5255 47.0838C89.5776 43.0636 89.4742 35.467 91.0007 31.0068C92.2361 27.3976 95.1944 25.3408 99.0031 24.9211C103.422 24.4341 106.239 25.3127 109.682 27.5911C113.267 29.9632 117.551 32.5342 121.671 33.5811C127.045 34.9462 132.592 35.9516 137.508 38.5366C140.754 40.243 143.772 42.7784 145.07 46.241C146.926 51.1969 144.8 56.9028 141.371 60.9062C136.196 66.9449 128.005 70.1832 120.16 69.2913C114.055 68.5972 108.295 65.4197 104.287 60.7233C102.48 58.6061 101.11 57.0307 98.9533 55.3163C96.1923 53.1206 93.0942 50.3218 91.5255 47.0838Z" fill="#FF3B3B"/>
<path fill-rule="evenodd" clip-rule="evenodd" d="M114.108 51.9759C114.108 51.9759 107.305 51.2924 100.6 51.0761C94.617 50.8835 88.2142 51.9963 87.7942 52.4338C86.1198 54.1766 85.5148 69.1519 86.4507 71.9155C87.3866 74.679 91.7546 81.8506 90.9471 86.53C90.1388 91.2105 88.4683 97.734 88.4683 97.734C88.4683 97.734 94.1548 101.004 101.333 100.952C105.64 100.92 111.603 100.058 115.301 97.3096C115.301 97.3096 113.144 91.5046 113.361 86.9351C113.578 82.3636 115.912 74.5796 117.147 71.7785C118.382 68.9773 116.387 52.4327 114.108 51.9759Z" fill="#C25076"/>
<path fill-rule="evenodd" clip-rule="evenodd" d="M91.0472 53.6918L88.5207 52.3669C88.5207 52.3669 85.6569 53.2103 84.1707 55.4217C82.95 57.2387 77.4747 73.7218 77.4747 73.7218C77.4747 73.7218 85.1127 76.7994 87.5419 76.6549L91.2626 66.5446L91.0472 53.6918Z" fill="#C25076"/>
<path fill-rule="evenodd" clip-rule="evenodd" d="M111.616 53.6896L114.368 52.3669C114.368 52.3669 116.118 52.7211 118.363 55.3145C119.782 56.9527 126.061 72.785 126.061 72.785C126.061 72.785 118.42 76.0589 115.952 76.0026L111.835 66.2546L111.616 53.6896Z" fill="#C25076"/>
<path fill-rule="evenodd" clip-rule="evenodd" d="M103.865 42.4108C103.865 42.4108 104.334 49.101 104.758 51.2323C105.196 53.4346 105.781 63.5585 101.221 64.7612C96.6604 65.964 97.7878 53.3223 97.6733 51.0901C97.5588 48.858 96.5151 41.2053 96.5151 41.2053L103.865 42.4108Z" fill="#F7A491"/>
<path fill-rule="evenodd" clip-rule="evenodd" d="M96.5151 41.2053C96.5151 41.2053 96.7178 42.7659 96.951 44.6885C98.5937 45.9985 100.841 46.3246 103.415 44.7199C103.527 44.6506 103.632 44.5766 103.737 44.5036C103.645 43.2921 103.587 42.4235 103.587 42.4235L96.5151 41.2053Z" fill="#F47458"/>
<path fill-rule="evenodd" clip-rule="evenodd" d="M102.019 27.5379C102.019 27.5379 104.794 28.2276 106.433 30.7986C108.072 33.3693 109.002 40.8153 103.199 44.0952C97.3959 47.3749 93.1437 42.344 93.2337 37.5704C93.3247 32.7969 94.6142 26.4629 102.019 27.5379Z" fill="#F7A491"/>
<path fill-rule="evenodd" clip-rule="evenodd" d="M92.1699 36.1022C92.6509 37.3434 93.6634 38.1357 94.432 37.872C95.1996 37.6082 95.4327 36.3884 94.9516 35.1471C94.4705 33.9059 93.4581 33.1136 92.6894 33.3773C91.9208 33.6411 91.6888 34.8611 92.1699 36.1022Z" fill="#F7A491"/>
<path fill-rule="evenodd" clip-rule="evenodd" d="M101.111 27.4172C101.111 27.4172 104.359 35.1545 107.415 35.9338C110.473 36.7129 110.298 40.5485 110.298 40.5485C110.298 40.5485 110.529 31.6856 107.712 29.5611C104.895 27.4367 101.111 27.4172 101.111 27.4172Z" fill="#FF3B3B"/>
<path fill-rule="evenodd" clip-rule="evenodd" d="M105.895 37.0593C105.474 38.2933 105.784 39.5331 106.587 39.8285C107.39 40.1238 108.382 39.3628 108.802 38.1288C109.223 36.8949 108.913 35.655 108.11 35.3598C107.308 35.0644 106.315 35.8253 105.895 37.0593Z" fill="#F7A491"/>
<path fill-rule="evenodd" clip-rule="evenodd" d="M72.6239 112.544C72.6239 112.544 70.5924 110.883 68.1831 110.248C65.7739 109.613 65.8211 111.366 65.2014 114.07C64.5818 116.773 63.5387 118.546 62.2191 121.167C60.8992 123.789 62.516 129.758 63.2558 129.835C65.0434 130.022 65.8718 126.224 67.5634 122.984C69.2545 119.744 73.9714 118.656 75.3461 118.511C75.5932 118.485 81.7274 117.519 89.9494 117.582C88.224 114.323 85.7314 111.667 83.1719 108.832C76.9291 110.981 72.6239 112.544 72.6239 112.544Z" fill="#F7A491"/>
<path fill-rule="evenodd" clip-rule="evenodd" d="M144.326 103.971C143.498 99.8936 139.995 98.2286 135.95 98.3311C126.627 98.5659 100.343 104.425 84.697 109.213C85.6331 112.498 84.9157 114.643 86.0314 118.024C102.605 117.163 133.704 114.645 142.694 109.59C144.095 108.803 144.726 105.943 144.326 103.971Z" fill="#355389"/>
<path fill-rule="evenodd" clip-rule="evenodd" d="M133.557 122.436C132.374 119.747 131.185 117.972 130.699 115.234C130.123 111.994 130.392 110.183 126.437 111.719C124.166 112.6 121.653 112.612 119.401 111.684C117.922 111.074 116.093 110.327 114.016 109.488C112.684 112.313 111.835 115.304 111.616 118.493C116.533 119.002 120.117 119.5 120.298 119.519C121.089 119.602 126.42 120.732 127.943 124.059C129.464 127.386 130.149 131.528 131.884 131.128C132.894 130.896 134.74 125.125 133.557 122.436Z" fill="#F7A491"/>
<path fill-rule="evenodd" clip-rule="evenodd" d="M71.5234 97.0225C67.8843 96.9244 61.5931 97.5943 60.6521 101.606C60.1971 103.546 60.3659 106.278 61.1771 108.111C62.1893 110.399 64.5202 111.645 66.8334 112.613C71.2429 114.437 98.5497 117.266 112.618 118.68C114.28 115.745 115.653 112.483 115.55 109.629C101.967 104.304 78.4952 97.2122 71.5234 97.0225Z" fill="#86B1F2"/>
</svg>
