<svg width="104" height="23" viewBox="0 0 104 23" fill="none" xmlns="http://www.w3.org/2000/svg">
<path d="M10.3691 3.42578H1.66797V0.232422H21.5605L11.6875 18.7773H20.7109V22H0.15918L10.3691 3.42578ZM23.4941 14.6611C23.4941 13.8213 23.626 13.0547 23.8896 12.3613C24.1533 11.668 24.5146 11.0479 24.9736 10.501C25.4424 9.94434 25.9941 9.46094 26.6289 9.05078C27.2637 8.64062 27.9521 8.29883 28.6943 8.02539C29.4365 7.75195 30.2129 7.54688 31.0234 7.41016C31.834 7.27344 32.6543 7.20508 33.4844 7.20508C34.5781 7.20508 35.5693 7.31738 36.458 7.54199C37.3564 7.75684 38.1523 8.05469 38.8457 8.43555C39.5488 8.81641 40.1543 9.26074 40.6621 9.76855C41.1797 10.2764 41.6045 10.8184 41.9365 11.3945C42.2783 11.9609 42.5273 12.5469 42.6836 13.1523C42.8496 13.7578 42.9326 14.3486 42.9326 14.9248L31.8584 16.2578C32.0732 17.3418 32.5029 18.1816 33.1475 18.7773C33.792 19.373 34.6953 19.6709 35.8574 19.6709C36.4922 19.6709 37.083 19.5928 37.6299 19.4365C38.1865 19.2803 38.6211 19.0898 38.9336 18.8652L40.1055 20.916C39.7441 21.1016 39.3486 21.2773 38.9189 21.4434C38.499 21.6094 38.0303 21.7559 37.5127 21.8828C37.0049 22 36.4385 22.0928 35.8135 22.1611C35.1982 22.2393 34.5195 22.2783 33.7773 22.2783C32 22.2783 30.4668 22.0732 29.1777 21.6631C27.8887 21.2432 26.8193 20.6865 25.9697 19.9932C25.1299 19.29 24.5049 18.4795 24.0947 17.5615C23.6943 16.6436 23.4941 15.6768 23.4941 14.6611ZM35.8281 13.4307C35.8281 12.1611 35.667 11.2383 35.3447 10.6621C35.0322 10.0859 34.5635 9.79785 33.9385 9.79785C33.6162 9.79785 33.3184 9.87598 33.0449 10.0322C32.7715 10.1885 32.5371 10.4326 32.3418 10.7646C32.1465 11.0967 31.9902 11.5264 31.873 12.0537C31.7559 12.5713 31.6924 13.2012 31.6826 13.9434L35.8281 13.4307ZM45.6865 7.4834H52.7031L53.4062 9.59277C54.4414 8.80176 55.4912 8.20605 56.5557 7.80566C57.6299 7.40527 58.7578 7.20508 59.9395 7.20508C60.6133 7.20508 61.2383 7.31738 61.8145 7.54199C62.4004 7.7666 62.9082 8.11328 63.3379 8.58203C63.7676 9.05078 64.1045 9.65625 64.3486 10.3984C64.5928 11.1309 64.7148 12.0098 64.7148 13.0352V22H56.7607V12.5371C56.7607 12.0293 56.6484 11.6582 56.4238 11.4238C56.1992 11.1895 55.8721 11.0723 55.4424 11.0723C55.1592 11.0723 54.8467 11.1309 54.5049 11.248C54.1631 11.3652 53.875 11.5508 53.6406 11.8047V22H45.6865V7.4834ZM69.5195 9.90039H67.8789V7.4834H69.5195V2.64941H77.4736V7.4834H81.2969L79.8027 9.90039H77.4736V16.4775C77.4736 17.4736 77.6934 18.2402 78.1328 18.7773C78.582 19.3145 79.2217 19.583 80.0518 19.583L79.1436 21.5898C78.6357 21.8047 78.0938 21.9707 77.5176 22.0879C76.9512 22.2148 76.292 22.2783 75.54 22.2783C74.4854 22.2783 73.5771 22.1465 72.8154 21.8828C72.0537 21.6094 71.4287 21.2236 70.9404 20.7256C70.4521 20.2275 70.0908 19.6172 69.8564 18.8945C69.6318 18.1719 69.5195 17.3564 69.5195 16.4482V9.90039ZM82.7031 14.749C82.7031 13.5967 82.9375 12.5566 83.4062 11.6289C83.8848 10.7012 84.5684 9.91016 85.457 9.25586C86.3555 8.60156 87.4492 8.09863 88.7383 7.74707C90.0273 7.38574 91.4922 7.20508 93.1328 7.20508C94.7734 7.20508 96.2383 7.38574 97.5273 7.74707C98.8164 8.09863 99.9053 8.60156 100.794 9.25586C101.692 9.91016 102.376 10.7012 102.845 11.6289C103.323 12.5566 103.562 13.5967 103.562 14.749C103.562 15.8916 103.323 16.9268 102.845 17.8545C102.376 18.7822 101.692 19.5732 100.794 20.2275C99.9053 20.8818 98.8164 21.3896 97.5273 21.751C96.2383 22.1025 94.7734 22.2783 93.1328 22.2783C91.4922 22.2783 90.0273 22.1025 88.7383 21.751C87.4492 21.3896 86.3555 20.8818 85.457 20.2275C84.5684 19.5732 83.8848 18.7822 83.4062 17.8545C82.9375 16.9268 82.7031 15.8916 82.7031 14.749ZM93.1328 19.5977C93.4941 19.5977 93.8164 19.5244 94.0996 19.3779C94.3828 19.2314 94.6172 18.9775 94.8027 18.6162C94.9883 18.2451 95.1299 17.7471 95.2275 17.1221C95.3252 16.4971 95.374 15.7061 95.374 14.749C95.374 13.7822 95.3252 12.9863 95.2275 12.3613C95.1299 11.7363 94.9883 11.2432 94.8027 10.8818C94.6172 10.5107 94.3828 10.252 94.0996 10.1055C93.8164 9.95898 93.4941 9.88574 93.1328 9.88574C92.7617 9.88574 92.4346 9.95898 92.1514 10.1055C91.8779 10.252 91.6484 10.5107 91.4629 10.8818C91.2773 11.2432 91.1357 11.7363 91.0381 12.3613C90.9404 12.9863 90.8916 13.7822 90.8916 14.749C90.8916 15.7061 90.9404 16.4971 91.0381 17.1221C91.1357 17.7471 91.2773 18.2451 91.4629 18.6162C91.6484 18.9775 91.8779 19.2314 92.1514 19.3779C92.4346 19.5244 92.7617 19.5977 93.1328 19.5977Z" fill="black"/>
</svg>
