<svg width="15" height="15" viewBox="0 0 15 15" fill="none" xmlns="http://www.w3.org/2000/svg">
<g clip-path="url(#clip0)">
<path d="M4.25508 1.85745H1.72732C1.55993 1.85745 1.39419 1.89042 1.23954 1.95448C1.0849 2.01853 0.944386 2.11242 0.826026 2.23078C0.586988 2.46982 0.452698 2.79402 0.452698 3.13208V9.50519C0.452698 9.84325 0.586988 10.1674 0.826026 10.4065C0.944386 10.5248 1.0849 10.6187 1.23954 10.6828C1.39419 10.7468 1.55993 10.7798 1.72732 10.7798H11.7422C12.0803 10.7798 12.4045 10.6455 12.6435 10.4065C12.8825 10.1674 13.0168 9.84325 13.0168 9.50519V4.09077L13.0161 4.04707C13.0048 3.71678 12.8656 3.4038 12.6279 3.17415C12.3903 2.9445 12.0727 2.81615 11.7422 2.81615H5.99658L5.00055 2.09817C4.78349 1.94167 4.52268 1.85745 4.25508 1.85745ZM1.72732 2.94999H4.25508C4.29332 2.94999 4.33059 2.96203 4.3616 2.9844L5.40552 3.73661C5.56055 3.84837 5.74683 3.90851 5.93794 3.9085H11.7422C11.7661 3.9085 11.7898 3.91321 11.8119 3.92236C11.834 3.93152 11.8541 3.94493 11.871 3.96184C11.8879 3.97874 11.9013 3.99882 11.9104 4.02091C11.9196 4.043 11.9243 4.06668 11.9243 4.09059V9.50519C11.9243 9.52911 11.9196 9.55278 11.9104 9.57488C11.9013 9.59697 11.8879 9.61704 11.871 9.63395C11.8541 9.65086 11.834 9.66427 11.8119 9.67342C11.7898 9.68257 11.7661 9.68728 11.7422 9.68728H1.72732C1.70341 9.68728 1.67973 9.68257 1.65764 9.67342C1.63555 9.66427 1.61547 9.65086 1.59856 9.63395C1.58166 9.61704 1.56824 9.59697 1.55909 9.57488C1.54994 9.55278 1.54523 9.52911 1.54523 9.50519V3.13208C1.54523 3.10816 1.54994 3.08449 1.55909 3.06239C1.56824 3.0403 1.58166 3.02023 1.59856 3.00332C1.61547 2.98641 1.63555 2.973 1.65764 2.96385C1.67973 2.9547 1.70341 2.94999 1.72732 2.94999Z" fill="#212121"/>
<path d="M14.4736 4.22461C14.6129 4.2246 14.747 4.27784 14.8483 4.37343C14.9497 4.46902 15.0107 4.59973 15.0189 4.73883L15.0198 4.77088V11.5082C15.0198 11.8387 14.8915 12.1562 14.6618 12.3939C14.4322 12.6316 14.1192 12.7707 13.7889 12.7821L13.7452 12.7828H4.45866C4.31646 12.7829 4.17982 12.7276 4.07776 12.6286C3.9757 12.5296 3.91627 12.3947 3.9121 12.2526C3.90793 12.1104 3.95934 11.9723 4.05542 11.8674C4.15149 11.7626 4.28465 11.6994 4.42661 11.6912L4.45866 11.6903H13.7452C13.7898 11.6902 13.8328 11.6739 13.8662 11.6442C13.8995 11.6146 13.9208 11.5738 13.926 11.5295L13.9273 11.5082V4.77088C13.9273 4.626 13.9848 4.48705 14.0873 4.38461C14.1897 4.28216 14.3287 4.22461 14.4736 4.22461Z" fill="#F9B198"/>
</g>
<defs>
<clipPath id="clip0">
<rect width="15" height="15" fill="white"/>
</clipPath>
</defs>
</svg>
