<svg width="30" height="25" viewBox="0 0 30 25" fill="none" xmlns="http://www.w3.org/2000/svg">
<path d="M21.8327 3L23 4.40275L13.2508 12.3764C12.7697 12.7698 12.1682 12.9896 11.5446 12.9996C10.9211 13.0097 10.3126 12.8095 9.81893 12.4319L9.74861 12.3764L0 4.40275L1.16729 3L10.9165 10.9736C11.0729 11.1016 11.2677 11.1745 11.4704 11.181C11.6731 11.1876 11.8722 11.1273 12.0367 11.0097L12.0838 10.9733L21.8327 3.0003V3Z" fill="#F9B198"/>
<path d="M21.3505 2.18573H2.16599C1.59154 2.18573 1.04061 2.3759 0.634405 2.7144C0.228202 3.0529 0 3.51201 0 3.99073L0 17.3993C0 17.878 0.228202 18.3371 0.634405 18.6756C1.04061 19.0141 1.59154 19.2043 2.16599 19.2043H21.3505C21.925 19.2043 22.4759 19.0141 22.8821 18.6756C23.2883 18.3371 23.5165 17.878 23.5165 17.3993V3.99073C23.5165 3.51201 23.2883 3.0529 22.8821 2.7144C22.4759 2.3759 21.925 2.18573 21.3505 2.18573ZM2.16599 3.73287H21.3505C21.4326 3.73287 21.5113 3.76004 21.5693 3.80839C21.6273 3.85675 21.6599 3.92234 21.6599 3.99073V17.3993C21.6599 17.4677 21.6273 17.5332 21.5693 17.5816C21.5113 17.63 21.4326 17.6571 21.3505 17.6571H2.16599C2.08393 17.6571 2.00523 17.63 1.9472 17.5816C1.88917 17.5332 1.85657 17.4677 1.85657 17.3993V3.99073C1.85657 3.92234 1.88917 3.85675 1.9472 3.80839C2.00523 3.76004 2.08393 3.73287 2.16599 3.73287Z" fill="#4E4E4E"/>
</svg>
