<svg width="15" height="15" viewBox="0 0 15 15" fill="none" xmlns="http://www.w3.org/2000/svg">
<g clip-path="url(#clip0)">
<path d="M11.1658 3.15062C11.2332 3.28546 11.2467 3.44093 11.2034 3.58534C11.1602 3.72974 11.0634 3.8522 10.933 3.92774L10.901 3.94491L6.12778 6.33152C6.27219 6.69932 6.3461 7.09101 6.34564 7.48614C6.34564 7.8526 6.28328 8.20445 6.16843 8.53164L10.3619 10.88C10.5902 10.5622 10.891 10.3035 11.2392 10.1251C11.5875 9.94673 11.9732 9.85386 12.3645 9.8542C13.7269 9.8542 14.8312 10.9585 14.8312 12.3209C14.8312 13.6833 13.7269 14.7877 12.3645 14.7877C11.002 14.7877 9.89773 13.6833 9.89773 12.3209C9.89773 12.2084 9.90523 12.0979 9.91983 11.9894L5.57326 9.55543C5.27716 9.89741 4.91087 10.1716 4.49932 10.3594C4.08776 10.5471 3.6406 10.6441 3.18823 10.6436C1.44436 10.6436 0.0308228 9.23002 0.0308228 7.48614C0.0308228 5.74227 1.44436 4.32873 3.18823 4.32873C4.09638 4.32873 4.91494 4.71216 5.49117 5.32608L10.3713 2.8858C10.4409 2.85103 10.5166 2.8303 10.5941 2.82479C10.6717 2.81928 10.7496 2.82911 10.8233 2.8537C10.8971 2.87829 10.9653 2.91717 11.024 2.96812C11.0827 3.01906 11.1309 3.08108 11.1656 3.15062H11.1658ZM12.3645 11.0382C12.196 11.0382 12.0292 11.0714 11.8736 11.1359C11.718 11.2003 11.5766 11.2948 11.4575 11.4139C11.3383 11.533 11.2439 11.6744 11.1794 11.8301C11.1149 11.9857 11.0818 12.1525 11.0818 12.3209C11.0818 12.4894 11.1149 12.6562 11.1794 12.8118C11.2439 12.9674 11.3383 13.1088 11.4575 13.2279C11.5766 13.347 11.718 13.4415 11.8736 13.506C12.0292 13.5704 12.196 13.6036 12.3645 13.6036C12.7046 13.6036 13.0309 13.4685 13.2715 13.2279C13.512 12.9874 13.6472 12.6611 13.6472 12.3209C13.6472 11.9807 13.512 11.6545 13.2715 11.4139C13.0309 11.1734 12.7046 11.0382 12.3645 11.0382ZM3.18823 5.51276C2.09833 5.51276 1.21485 6.39624 1.21485 7.48614C1.21485 8.57604 2.09833 9.45952 3.18823 9.45952C4.27813 9.45952 5.16161 8.57604 5.16161 7.48614C5.16161 6.39624 4.27813 5.51276 3.18823 5.51276Z" fill="#303133"/>
<path d="M12.5618 0.184601C11.1994 0.184601 10.0951 1.28891 10.0951 2.65133C10.0951 4.01375 11.1994 5.11805 12.5618 5.11805C13.9242 5.11805 15.0285 4.01375 15.0285 2.65133C15.0285 1.28891 13.9242 0.184601 12.5618 0.184601ZM12.5618 1.36863C12.902 1.36863 13.2283 1.50377 13.4688 1.74432C13.7094 1.98488 13.8445 2.31114 13.8445 2.65133C13.8445 2.99152 13.7094 3.31778 13.4688 3.55833C13.2283 3.79888 12.902 3.93403 12.5618 3.93403C12.2216 3.93403 11.8954 3.79888 11.6548 3.55833C11.4143 3.31778 11.2791 2.99152 11.2791 2.65133C11.2791 2.31114 11.4143 1.98488 11.6548 1.74432C11.8954 1.50377 12.2216 1.36863 12.5618 1.36863Z" fill="#1EA5FC"/>
</g>
<defs>
<clipPath id="clip0">
<rect width="15" height="15" fill="white"/>
</clipPath>
</defs>
</svg>
