<svg width="15" height="15" viewBox="0 0 15 15" fill="none" xmlns="http://www.w3.org/2000/svg">
<path d="M4.3125 6.5625C4.51141 6.5625 4.70218 6.64152 4.84283 6.78217C4.98348 6.92282 5.0625 7.11359 5.0625 7.3125C5.0625 7.51141 4.98348 7.70218 4.84283 7.84283C4.70218 7.98348 4.51141 8.0625 4.3125 8.0625C4.11359 8.0625 3.92282 7.98348 3.78217 7.84283C3.64152 7.70218 3.5625 7.51141 3.5625 7.3125C3.5625 7.11359 3.64152 6.92282 3.78217 6.78217C3.92282 6.64152 4.11359 6.5625 4.3125 6.5625ZM7.5 6.5625C7.69891 6.5625 7.88967 6.64152 8.03033 6.78217C8.17098 6.92282 8.25 7.11359 8.25 7.3125C8.25 7.51141 8.17098 7.70218 8.03033 7.84283C7.88967 7.98348 7.69891 8.0625 7.5 8.0625C7.30108 8.0625 7.11032 7.98348 6.96967 7.84283C6.82902 7.70218 6.75 7.51141 6.75 7.3125C6.75 7.11359 6.82902 6.92282 6.96967 6.78217C7.11032 6.64152 7.30108 6.5625 7.5 6.5625ZM10.6875 6.5625C10.8864 6.5625 11.0772 6.64152 11.2178 6.78217C11.3585 6.92282 11.4375 7.11359 11.4375 7.3125C11.4375 7.51141 11.3585 7.70218 11.2178 7.84283C11.0772 7.98348 10.8864 8.0625 10.6875 8.0625C10.4886 8.0625 10.2978 7.98348 10.1572 7.84283C10.0165 7.70218 9.9375 7.51141 9.9375 7.3125C9.9375 7.11359 10.0165 6.92282 10.1572 6.78217C10.2978 6.64152 10.4886 6.5625 10.6875 6.5625Z" fill="#1EA5FC"/>
<path d="M7.5 0C3.36637 0 0 3.13875 0 7.03125L0.00075 7.13119C0.0285 8.99437 0.833438 10.7329 2.21044 12.0163L2.24025 12.0439L2.24044 13.6335C2.24052 13.8589 2.29864 14.0804 2.40919 14.2768L2.43281 14.3175C2.60998 14.6076 2.89282 14.8177 3.22177 14.9035C3.55073 14.9893 3.90014 14.9441 4.19644 14.7774L5.79319 13.8791L5.84081 13.8898C6.38119 14.0042 6.93656 14.0625 7.5 14.0625C11.6336 14.0625 15 10.9237 15 7.03125C15 3.13875 11.6336 0 7.5 0ZM7.5 1.125C11.0293 1.125 13.875 3.7785 13.875 7.03125C13.875 10.284 11.0293 12.9375 7.5 12.9375C6.93431 12.9375 6.37894 12.8692 5.84344 12.7361L5.62669 12.6823L3.64481 13.7968C3.61629 13.8128 3.58407 13.8211 3.55135 13.8209C3.51864 13.8206 3.48656 13.8117 3.45831 13.7952C3.43007 13.7787 3.40663 13.7551 3.39034 13.7267C3.37405 13.6984 3.36546 13.6662 3.36544 13.6335V11.5335L3.16931 11.3649C1.87294 10.2525 1.125 8.69681 1.125 7.03125C1.125 3.7785 3.97069 1.125 7.5 1.125Z" fill="#303133"/>
</svg>
