<svg width="15" height="15" viewBox="0 0 15 15" fill="none" xmlns="http://www.w3.org/2000/svg">
<path d="M7.5 0C3.35794 0 0 3.35794 0 7.5C0 11.6421 3.35794 15 7.5 15C11.6421 15 15 11.6421 15 7.5C15 3.35794 11.6421 0 7.5 0ZM7.5 1.125C11.0209 1.125 13.875 3.97913 13.875 7.5C13.875 11.0209 11.0209 13.875 7.5 13.875C3.97913 13.875 1.125 11.0209 1.125 7.5C1.125 3.97913 3.97913 1.125 7.5 1.125Z" fill="#303133"/>
<path d="M7.29525 9.64464C7.51406 9.64464 7.69575 9.71252 7.83375 9.85295C7.9785 9.99133 8.05125 10.1717 8.05125 10.3896C8.05211 10.4911 8.03261 10.5917 7.9939 10.6855C7.95518 10.7793 7.89805 10.8644 7.82588 10.9358C7.68423 11.0714 7.49509 11.1461 7.299 11.1439C7.20055 11.1454 7.10283 11.1268 7.01177 11.0894C6.92071 11.0519 6.83822 10.9963 6.76931 10.926C6.62867 10.7824 6.55026 10.5892 6.55106 10.3883C6.55106 10.1715 6.62344 9.9917 6.76631 9.8537C6.89656 9.72305 7.07237 9.64798 7.25681 9.64427L7.29525 9.64464ZM7.5075 4.03202C8.14688 4.03127 8.65969 4.19927 9.05175 4.54577C9.45357 4.88702 9.65625 5.35858 9.65625 5.94339C9.65625 6.41514 9.52744 6.81639 9.27338 7.13383L9.25088 7.15952C9.1455 7.27577 8.89163 7.50358 8.46038 7.87089C8.306 7.9953 8.17822 8.14948 8.08463 8.32427C7.99809 8.48027 7.94959 8.65449 7.94306 8.83277L7.9425 8.8922V9.14383H6.73688V8.8922C6.73688 8.5217 6.801 8.21458 6.93469 7.97139C7.05431 7.71995 7.37344 7.37139 7.90444 6.90377L8.02594 6.79783L8.18344 6.62777C8.34807 6.42039 8.42832 6.22014 8.42832 6.00845C8.42832 5.71164 8.34413 5.48402 8.17913 5.31583C8.01075 5.15045 7.75988 5.06458 7.43644 5.06458C7.05188 5.06458 6.77738 5.17333 6.6045 5.3927L6.57938 5.42645C6.43144 5.61827 6.35156 5.8922 6.34256 6.24808L6.34181 6.31577V6.40952H5.15625V6.31577C5.15625 5.61583 5.36362 5.06327 5.78156 4.65339C6.18656 4.25177 6.73575 4.04683 7.42856 4.03277L7.5075 4.03202Z" fill="#1EA5FC"/>
</svg>
