<svg width="150" height="150" viewBox="0 0 150 150" fill="none" xmlns="http://www.w3.org/2000/svg">
<g clip-path="url(#clip0)">
<path d="M98.9409 39.5498H74.3209C73.7819 39.5514 73.2497 39.4301 72.7646 39.195C72.2796 38.9599 71.8546 38.6173 71.5219 38.1933C71.1832 37.7652 70.9466 37.2655 70.8301 36.7322C70.7137 36.1989 70.7204 35.646 70.8499 35.1157C73.119 25.6115 73.1189 15.7066 70.8498 6.20245C70.7204 5.67216 70.7137 5.11935 70.8301 4.58609C70.9466 4.05282 71.1832 3.55314 71.5218 3.12507C71.8545 2.70098 72.2795 2.35836 72.7646 2.1233C73.2496 1.88823 73.7819 1.76691 74.3209 1.76857H98.9409C99.7909 1.77101 100.612 2.07511 101.259 2.62669C101.906 3.17827 102.336 3.94153 102.473 4.78052C104.093 15.3043 104.093 26.014 102.473 36.5378C102.336 37.3768 101.906 38.1401 101.259 38.6916C100.612 39.2432 99.7909 39.5473 98.9409 39.5498Z" fill="#E6E6E6"/>
<path d="M74.3209 3.6211C74.062 3.62023 73.8064 3.67841 73.5734 3.79122C73.3405 3.90402 73.1363 4.06847 72.9764 4.27207C72.8118 4.48067 72.697 4.72406 72.6406 4.98373C72.5842 5.2434 72.5878 5.5125 72.6511 5.77058C74.9881 15.5588 74.9881 25.7596 72.6513 35.5478C72.5879 35.8058 72.5843 36.0749 72.6406 36.3345C72.697 36.5942 72.8118 36.8375 72.9764 37.046L72.9765 37.0462C73.1363 37.2498 73.3405 37.4143 73.5734 37.5272C73.8064 37.64 74.062 37.6982 74.3209 37.6973H98.9409C99.3491 37.6974 99.7441 37.5527 100.056 37.2888C100.367 37.0249 100.575 36.6591 100.642 36.2564C102.233 25.9192 102.233 15.3992 100.642 5.06202C100.575 4.65933 100.367 4.29347 100.056 4.02959C99.7441 3.76572 99.3491 3.62096 98.9409 3.6211L74.3209 3.6211Z" fill="white"/>
<path d="M93.5682 12.5286H80.6487C80.1575 12.528 79.6867 12.3327 79.3394 11.9854C78.9921 11.6382 78.7968 11.1673 78.7963 10.6762V9.95227C78.7968 9.46114 78.9921 8.99029 79.3394 8.64301C79.6867 8.29573 80.1575 8.10039 80.6487 8.09985H93.5682C94.0593 8.10039 94.5302 8.29573 94.8775 8.64301C95.2248 8.99029 95.4201 9.46114 95.4206 9.95227V10.6762C95.4201 11.1673 95.2248 11.6382 94.8775 11.9854C94.5302 12.3327 94.0593 12.528 93.5682 12.5286Z" fill="#E6E6E6"/>
<path d="M93.5682 21.6755H80.6487C80.1575 21.675 79.6867 21.4797 79.3394 21.1324C78.9921 20.7851 78.7968 20.3143 78.7963 19.8231V19.0992C78.7968 18.6081 78.9921 18.1372 79.3394 17.79C79.6867 17.4427 80.1575 17.2474 80.6487 17.2468H93.5682C94.0593 17.2474 94.5302 17.4427 94.8775 17.79C95.2248 18.1372 95.4201 18.6081 95.4206 19.0992V19.8231C95.4201 20.3143 95.2248 20.7851 94.8775 21.1324C94.5302 21.4797 94.0593 21.675 93.5682 21.6755Z" fill="#E6E6E6"/>
<path d="M93.5682 30.8223H80.6487C80.1575 30.8217 79.6867 30.6264 79.3394 30.2791C78.9921 29.9318 78.7968 29.461 78.7963 28.9699V28.246C78.7968 27.7548 78.9921 27.284 79.3394 26.9367C79.6867 26.5894 80.1575 26.3941 80.6487 26.3936H93.5682C94.0593 26.3941 94.5302 26.5894 94.8775 26.9367C95.2248 27.284 95.4201 27.7548 95.4206 28.246V28.9699C95.4201 29.461 95.2248 29.9318 94.8775 30.2791C94.5302 30.6264 94.0593 30.8217 93.5682 30.8223Z" fill="#E6E6E6"/>
<path d="M145.253 63.0146H120.633C120.094 63.0162 119.562 62.8949 119.077 62.6598C118.592 62.4248 118.167 62.0822 117.834 61.6581C117.495 61.23 117.259 60.7303 117.142 60.197C117.026 59.6637 117.033 59.1109 117.162 58.5806C119.431 49.0764 119.431 39.1715 117.162 29.6673C117.033 29.137 117.026 28.5842 117.142 28.0509C117.259 27.5177 117.495 27.018 117.834 26.5899C118.167 26.1658 118.592 25.8232 119.077 25.5881C119.562 25.3531 120.094 25.2318 120.633 25.2334H145.253C146.103 25.2359 146.925 25.54 147.571 26.0915C148.218 26.6431 148.648 27.4064 148.785 28.2454C150.405 38.7691 150.405 49.4789 148.785 60.0026C148.648 60.8416 148.218 61.6049 147.571 62.1565C146.925 62.7081 146.103 63.0122 145.253 63.0146Z" fill="#E6E6E6"/>
<path d="M120.633 27.0857C120.374 27.0848 120.119 27.143 119.886 27.2558C119.653 27.3686 119.448 27.5331 119.289 27.7367C119.124 27.9453 119.009 28.1887 118.953 28.4483C118.896 28.708 118.9 28.9771 118.963 29.2352C121.3 39.0234 121.3 49.2242 118.963 59.0124C118.9 59.2704 118.896 59.5395 118.953 59.7991C119.009 60.0588 119.124 60.3021 119.288 60.5106L119.289 60.5108C119.448 60.7144 119.653 60.8789 119.886 60.9918C120.119 61.1046 120.374 61.1628 120.633 61.1619H145.253C145.661 61.162 146.056 61.0173 146.368 60.7534C146.679 60.4895 146.887 60.1237 146.954 59.721C148.545 49.3838 148.545 38.8638 146.954 28.5266C146.887 28.1239 146.679 27.7581 146.368 27.4942C146.056 27.2303 145.661 27.0856 145.253 27.0857L120.633 27.0857Z" fill="white"/>
<path d="M96.1621 89.7213H71.5421C70.9798 89.723 70.4245 89.5964 69.9184 89.3511C69.4124 89.1059 68.969 88.7484 68.6219 88.306C68.2687 87.8596 68.0219 87.3386 67.9005 86.7825C67.779 86.2263 67.7861 85.6499 67.921 85.0969C70.1844 75.6163 70.1844 65.7362 67.9209 56.2557C67.786 55.7027 67.779 55.1262 67.9005 54.5701C68.0219 54.0141 68.2686 53.493 68.6218 53.0467C68.9689 52.6042 69.4123 52.2468 69.9184 52.0015C70.4244 51.7563 70.9798 51.6297 71.5421 51.6314H96.1621C97.0489 51.634 97.906 51.9514 98.5808 52.5269C99.2555 53.1025 99.704 53.8988 99.8464 54.7742C101.469 65.3135 101.469 76.0391 99.8464 86.5785C99.704 87.4538 99.2555 88.2502 98.5808 88.8257C97.906 89.4013 97.0489 89.7186 96.1621 89.7213Z" fill="#F2F2F2"/>
<path d="M139.88 40.6245H126.961C126.47 40.624 125.999 40.4287 125.652 40.0814C125.304 39.7341 125.109 39.2632 125.108 38.7721V38.0482C125.109 37.5571 125.304 37.0862 125.652 36.739C125.999 36.3917 126.47 36.1963 126.961 36.1958H139.88C140.372 36.1963 140.842 36.3917 141.19 36.739C141.537 37.0862 141.732 37.5571 141.733 38.0482V38.7721C141.732 39.2633 141.537 39.7341 141.19 40.0814C140.842 40.4287 140.372 40.624 139.88 40.6245Z" fill="#E6E6E6"/>
<path d="M139.88 49.7715H126.961C126.47 49.771 125.999 49.5756 125.652 49.2283C125.304 48.8811 125.109 48.4102 125.108 47.9191V47.1952C125.109 46.7041 125.304 46.2332 125.652 45.8859C125.999 45.5386 126.47 45.3433 126.961 45.3428H139.88C140.372 45.3433 140.842 45.5386 141.19 45.8859C141.537 46.2332 141.732 46.7041 141.733 47.1952V47.9191C141.732 48.4102 141.537 48.8811 141.19 49.2283C140.842 49.5756 140.372 49.771 139.88 49.7715Z" fill="#E6E6E6"/>
<path d="M83.921 77.6499C87.8429 77.6499 91.0222 74.4706 91.0222 70.5487C91.0222 66.6268 87.8429 63.4475 83.921 63.4475C79.9991 63.4475 76.8198 66.6268 76.8198 70.5487C76.8198 74.4706 79.9991 77.6499 83.921 77.6499Z" fill="white"/>
<path d="M87.3172 69.6225H84.8472V67.1526C84.8472 66.9069 84.7496 66.6713 84.5759 66.4976C84.4022 66.3239 84.1666 66.2263 83.921 66.2263C83.6753 66.2263 83.4397 66.3239 83.266 66.4976C83.0923 66.6713 82.9947 66.9069 82.9947 67.1526V69.6225H80.5248C80.2791 69.6225 80.0435 69.7201 79.8698 69.8938C79.6961 70.0675 79.5985 70.3031 79.5985 70.5488C79.5985 70.7944 79.6961 71.03 79.8698 71.2037C80.0435 71.3774 80.2791 71.475 80.5248 71.475H82.9947V73.945C82.9947 74.1907 83.0923 74.4263 83.266 74.6C83.4397 74.7737 83.6753 74.8713 83.921 74.8713C84.1666 74.8713 84.4022 74.7737 84.5759 74.6C84.7496 74.4263 84.8472 74.1907 84.8472 73.945V71.475H87.3172C87.5629 71.475 87.7985 71.3774 87.9722 71.2037C88.1459 71.03 88.2434 70.7944 88.2434 70.5488C88.2434 70.3031 88.1459 70.0675 87.9722 69.8938C87.7985 69.7201 87.5629 69.6225 87.3172 69.6225Z" fill="#E6E6E6"/>
<path d="M92.8747 5.24871H79.9073C79.539 5.24829 79.1858 5.10178 78.9253 4.84132C78.6649 4.58085 78.5184 4.2277 78.5179 3.85934V1.38936C78.5184 1.02101 78.6649 0.66786 78.9253 0.407394C79.1858 0.146927 79.539 0.000415129 79.9073 0H92.8747C93.2431 0.000415129 93.5962 0.146927 93.8567 0.407394C94.1171 0.66786 94.2637 1.02101 94.2641 1.38936V3.85934C94.2637 4.2277 94.1171 4.58085 93.8567 4.84132C93.5962 5.10178 93.2431 5.24829 92.8747 5.24871Z" fill="#CCCCCC"/>
<path d="M139.804 29.0224H126.837C126.469 29.022 126.115 28.8755 125.855 28.615C125.595 28.3545 125.448 28.0014 125.448 27.633V25.163C125.448 24.7947 125.595 24.4415 125.855 24.1811C126.115 23.9206 126.469 23.7741 126.837 23.7737H139.804C140.173 23.7741 140.526 23.9206 140.786 24.1811C141.047 24.4415 141.193 24.7947 141.194 25.163V27.633C141.193 28.0014 141.047 28.3545 140.786 28.615C140.526 28.8755 140.173 29.022 139.804 29.0224Z" fill="#CCCCCC"/>
<path d="M27.3538 145.439H31.139L32.3224 130.839H27.3531L27.3538 145.439Z" fill="#FFB8B8"/>
<path d="M26.3884 144.203L33.8428 144.203H33.8431C34.4669 144.203 35.0847 144.326 35.661 144.564C36.2374 144.803 36.7611 145.153 37.2022 145.594C37.6434 146.035 37.9933 146.559 38.232 147.135C38.4707 147.712 38.5936 148.329 38.5936 148.953V149.108L26.3887 149.108L26.3884 144.203Z" fill="#2F2E41"/>
<path d="M6.97645 145.439H10.7617L12.5626 130.839H6.97583L6.97645 145.439Z" fill="#FFB8B8"/>
<path d="M6.01105 144.203L13.4654 144.203H13.4657C14.0895 144.203 14.7073 144.326 15.2837 144.564C15.86 144.803 16.3837 145.153 16.8248 145.594C17.266 146.035 17.6159 146.559 17.8546 147.135C18.0934 147.712 18.2162 148.329 18.2162 148.953V149.108L6.01128 149.108L6.01105 144.203Z" fill="#2F2E41"/>
<path d="M7.64805 140.827C7.26193 140.827 6.88996 140.681 6.60603 140.42C6.45362 140.281 6.33086 140.112 6.24514 139.925C6.15942 139.737 6.11249 139.534 6.10718 139.328L4.58917 84.9221L26.1432 90.3104L32.7935 110.261C33.6511 112.827 34.0223 115.531 33.8881 118.234L33.0624 137.573C33.0435 137.969 32.8728 138.343 32.5856 138.617C32.2985 138.89 31.917 139.043 31.5204 139.042H27.9052C27.5321 139.041 27.172 138.905 26.891 138.659C26.61 138.414 26.427 138.075 26.3754 137.706L23.7916 116.358C23.5658 114.693 22.9832 113.096 22.0837 111.676L16.9987 103.625C16.9647 103.572 16.915 103.53 16.8562 103.505C16.7974 103.481 16.7326 103.475 16.6705 103.489C16.6084 103.503 16.5521 103.536 16.5093 103.583C16.4665 103.63 16.4393 103.689 16.4314 103.752L12.4409 139.285C12.3981 139.646 12.2295 139.979 11.9648 140.228C11.7001 140.476 11.3562 140.623 10.9938 140.643L7.73593 140.824C7.70662 140.826 7.67738 140.827 7.64805 140.827Z" fill="#2F2E41"/>
<path d="M22.5564 49.6983C26.7444 49.6983 30.1395 46.3032 30.1395 42.1151C30.1395 37.9271 26.7444 34.532 22.5564 34.532C18.3683 34.532 14.9732 37.9271 14.9732 42.1151C14.9732 46.3032 18.3683 49.6983 22.5564 49.6983Z" fill="#FFB8B8"/>
<path d="M26.04 92.5232C25.9095 92.523 25.7795 92.5065 25.6532 92.474H25.6529L4.26774 86.9908C3.88539 86.8928 3.55509 86.6522 3.34475 86.3182C3.1344 85.9842 3.05999 85.5824 3.13684 85.1953L8.04812 58.7384C8.35411 57.2091 9.02669 55.7769 10.0081 54.5647C10.9895 53.3526 12.2505 52.3968 13.6827 51.7794C15.0782 51.1617 16.6043 50.8971 18.1263 51.0088C19.6482 51.1206 21.1193 51.6053 22.4096 52.4201C22.709 52.6069 23.0106 52.8105 23.3058 53.0255C24.4941 53.9021 25.4632 55.0421 26.137 56.3561C26.8109 57.6701 27.1711 59.1223 27.1895 60.5989L27.58 90.9576C27.5826 91.1618 27.5448 91.3644 27.4686 91.5539C27.3925 91.7434 27.2796 91.9159 27.1364 92.0614C26.9932 92.207 26.8226 92.3227 26.6344 92.402C26.4462 92.4813 26.2442 92.5224 26.04 92.5232Z" fill="#F9B198"/>
<path d="M6.46805 92.8343C6.21295 92.4589 6.04326 92.0322 5.97094 91.5841C5.89862 91.136 5.92543 90.6775 6.04947 90.2409C6.17352 89.8043 6.39178 89.4002 6.68889 89.057C6.98601 88.7139 7.35474 88.4401 7.76912 88.2549L6.81793 77.2629L11.8585 79.9949L11.989 90.0142C12.254 90.731 12.2469 91.52 11.969 92.2319C11.6911 92.9437 11.1617 93.5289 10.4812 93.8765C9.80064 94.2241 9.01623 94.31 8.27659 94.118C7.53695 93.9259 6.89346 93.4692 6.46806 92.8343H6.46805Z" fill="#FFB8B8"/>
<path d="M8.26888 86.801C8.12665 86.8009 7.985 86.7829 7.84721 86.7477C7.55086 86.6721 7.28044 86.5178 7.06457 86.3011C6.8487 86.0845 6.6954 85.8135 6.62089 85.5169L4.14375 75.6728C3.27806 72.2347 3.69074 68.5992 5.30502 65.4426L10.4947 55.2904C10.8228 54.0749 11.6154 53.037 12.7017 52.4006C13.788 51.7642 15.081 51.5802 16.3017 51.8884C16.9101 52.0421 17.482 52.3149 17.9841 52.6913C18.4863 53.0676 18.9087 53.5399 19.227 54.0807C19.5518 54.6293 19.7642 55.237 19.8519 55.8685C19.9396 56.4999 19.9008 57.1425 19.7377 57.7588L12.3501 74.2787L12.4379 84.1696C12.4401 84.5185 12.3352 84.8597 12.1373 85.1471C11.9394 85.4345 11.658 85.6542 11.3312 85.7765L8.85893 86.6946C8.67015 86.7649 8.47033 86.801 8.26888 86.801Z" fill="#F9B198"/>
<path d="M43.6315 88.7911C43.1806 88.7395 42.7464 88.5897 42.3596 88.3522C41.9728 88.1148 41.6428 87.7954 41.3928 87.4165C41.1428 87.0377 40.9789 86.6087 40.9126 86.1596C40.8464 85.7106 40.8794 85.2525 41.0093 84.8176L32.0577 78.3681L37.4165 76.3298L45.0955 82.7669C45.8117 83.0336 46.4051 83.5537 46.7633 84.2287C47.1215 84.9037 47.2197 85.6867 47.0393 86.4292C46.8588 87.1718 46.4122 87.8224 45.7842 88.2577C45.1561 88.693 44.3902 88.8828 43.6315 88.7911H43.6315Z" fill="#FFB8B8"/>
<path d="M38.9454 84.0816C38.6815 84.0814 38.4212 84.02 38.1851 83.9021L29.1081 79.3581C25.9377 77.7713 23.4515 75.087 22.1117 71.8045L17.8024 61.2483C17.0953 60.2067 16.8258 58.9288 17.052 57.6903C17.2783 56.4518 17.9822 55.3518 19.012 54.6274C19.5266 54.2656 20.108 54.0099 20.7223 53.8751C21.3367 53.7402 21.9718 53.729 22.5905 53.8421C23.2165 53.9547 23.814 54.1904 24.3482 54.5355C24.8825 54.8807 25.343 55.3284 25.7029 55.8528L33.4047 72.2286L40.9584 78.6143C41.2244 78.8402 41.4146 79.1423 41.5034 79.4798C41.5921 79.8172 41.575 80.1738 41.4545 80.5013L40.5376 82.9739C40.4179 83.2981 40.2016 83.5779 39.918 83.7754C39.6328 83.9748 39.2933 84.0816 38.9454 84.0816Z" fill="#F9B198"/>
<path d="M20.964 49.8143C21.3669 49.9906 22.192 46.7801 21.8224 46.138C21.2727 45.1831 21.3052 45.1899 20.9404 44.5582C20.5755 43.9264 20.4938 43.0616 20.9663 42.5057C21.4389 41.9498 22.5323 42.0236 22.7479 42.7206C22.6092 41.3967 23.9187 40.3325 25.2158 40.0335C26.5129 39.7344 27.881 39.9201 29.1852 39.654C30.6988 39.3451 32.2737 38.0764 31.6698 36.4119C31.5661 36.1348 31.411 35.8798 31.2125 35.6604C30.5148 34.8759 29.5387 34.5409 28.5844 34.217C26.5992 33.5432 24.5596 32.8609 22.4644 32.9353C20.7381 33.0255 19.0755 33.6171 17.6802 34.6375C16.2848 35.658 15.2172 37.0631 14.6079 38.6808C14.4635 39.0855 14.3517 39.5011 14.2734 39.9236C13.5543 43.7905 15.7998 47.6046 19.4469 49.0771L20.964 49.8143Z" fill="#2F2E41"/>
<path opacity="0.2" d="M12.0103 84.394L12.1822 74.2273L17.5677 63.3992L13.2452 74.5141L12.0103 84.394Z" fill="black"/>
<path d="M60.8472 109.909L38.1115 100.463C37.6131 100.257 37.1682 99.9411 36.8104 99.5379C36.4527 99.1347 36.1917 98.6553 36.0472 98.136C35.8986 97.6107 35.8719 97.0585 35.9689 96.5213C36.066 95.9842 36.2844 95.4762 36.6074 95.0362C42.3495 87.13 46.1497 77.9832 47.7008 68.3357C47.7848 67.7964 47.9907 67.2833 48.3029 66.8356C48.615 66.3878 49.0252 66.0171 49.5022 65.7517C49.9721 65.4877 50.4961 65.3344 51.0342 65.3035C51.5723 65.2725 52.1104 65.3647 52.6075 65.573L75.3432 75.0193C76.1272 75.3477 76.7693 75.9438 77.1549 76.7013C77.5405 77.4588 77.6448 78.3286 77.449 79.1558C74.9075 89.4958 70.7984 99.3859 65.2643 108.483C64.8162 109.205 64.1263 109.745 63.3174 110.006C62.5085 110.267 61.6331 110.233 60.8472 109.909Z" fill="#E6E6E6"/>
<path d="M51.8967 67.2836C51.658 67.1835 51.3996 67.1391 51.1412 67.1539C50.8828 67.1687 50.6311 67.2422 50.4054 67.3689C50.1734 67.4984 49.9739 67.6791 49.8222 67.8972C49.6705 68.1154 49.5706 68.3653 49.53 68.6279C47.9326 78.5636 44.0187 87.9837 38.1051 96.1262C37.9476 96.3401 37.841 96.5872 37.7934 96.8486C37.7459 97.1099 37.7585 97.3787 37.8305 97.6345L37.8306 97.6346C37.9 97.884 38.0254 98.1142 38.1973 98.3078C38.3691 98.5014 38.5828 98.6532 38.8222 98.7517L61.5579 108.198C61.9348 108.355 62.3551 108.373 62.744 108.249C63.1329 108.124 63.4651 107.866 63.6814 107.52C69.1173 98.5846 73.1537 88.8698 75.6502 78.7131C75.7429 78.3155 75.6914 77.898 75.5051 77.5348C75.3187 77.1716 75.0094 76.8864 74.6324 76.7299L51.8967 67.2836Z" fill="white"/>
<path d="M64.0025 88.3115L52.0718 83.3545C51.6184 83.1655 51.2586 82.8045 51.0711 82.3505C50.8837 81.8966 50.8839 81.3868 51.0719 80.9331L51.3496 80.2646C51.5386 79.8113 51.8996 79.4514 52.3535 79.2639C52.8075 79.0765 53.3173 79.0767 53.771 79.2647L65.7018 84.2217C66.1551 84.4106 66.515 84.7717 66.7024 85.2256C66.8899 85.6796 66.8896 86.1894 66.7016 86.6431L66.4239 87.3116C66.235 87.7649 65.8739 88.1248 65.42 88.3122C64.966 88.4997 64.4563 88.4994 64.0025 88.3115Z" fill="#F9B198"/>
<path d="M60.493 96.7585L48.5622 91.8015C48.1089 91.6126 47.749 91.2515 47.5616 90.7976C47.3741 90.3436 47.3744 89.8338 47.5624 89.3801L47.8401 88.7116C48.029 88.2583 48.3901 87.8984 48.844 87.711C49.298 87.5235 49.8077 87.5238 50.2615 87.7117L62.1922 92.6687C62.6456 92.8577 63.0054 93.2187 63.1929 93.6727C63.3803 94.1266 63.3801 94.6364 63.1921 95.0901L62.9144 95.7586C62.7255 96.212 62.3644 96.5718 61.9105 96.7593C61.4565 96.9467 60.9468 96.9465 60.493 96.7585Z" fill="#F9B198"/>
<path d="M68.7831 76.4403C68.6045 76.4402 68.4276 76.4055 68.2622 76.3382L56.2402 71.4777C55.8989 71.3393 55.6264 71.0711 55.4825 70.732C55.3387 70.3929 55.3352 70.0106 55.4728 69.669L56.3987 67.379C56.5369 67.0374 56.805 66.7647 57.1443 66.6208C57.4835 66.4769 57.8659 66.4737 58.2076 66.6118L70.2296 71.4723C70.5709 71.6107 70.8434 71.8789 70.9872 72.218C71.1311 72.5571 71.1345 72.9394 70.9969 73.2811L70.071 75.571C69.967 75.8275 69.789 76.0471 69.5596 76.202C69.3302 76.3568 69.0599 76.4398 68.7831 76.4403Z" fill="#CCCCCC"/>
<path d="M43.5334 149.279H0.308748C0.226863 149.279 0.148336 149.247 0.0904346 149.189C0.0325331 149.131 0 149.052 0 148.971C0 148.889 0.0325331 148.81 0.0904346 148.752C0.148336 148.694 0.226863 148.662 0.308748 148.662H43.5334C43.6153 148.662 43.6938 148.694 43.7517 148.752C43.8096 148.81 43.8422 148.889 43.8422 148.971C43.8422 149.052 43.8096 149.131 43.7517 149.189C43.6938 149.247 43.6153 149.279 43.5334 149.279Z" fill="#CCCCCC"/>
</g>
<defs>
<clipPath id="clip0">
<rect width="150" height="149.279" fill="white"/>
</clipPath>
</defs>
</svg>
