<svg width="8" height="11" viewBox="0 0 8 11" fill="none" xmlns="http://www.w3.org/2000/svg">
<path d="M1.48945 10.532C1.82524 10.532 2.12644 10.4 2.33335 10.1907L6.71512 6.2471C6.94779 6.0608 7.0943 5.78976 7.0943 5.48764C7.0943 5.23332 6.99033 5.00116 6.81869 4.82277L6.82196 4.81984L2.30279 0.754882C2.09728 0.562982 1.80892 0.44339 1.48964 0.44339C0.865872 0.44339 0.360418 0.898309 0.360418 1.45957C0.360418 1.78487 0.530294 2.07408 0.794388 2.26019L4.37801 5.48541L0.77143 8.73137C0.520262 8.91764 0.360337 9.19988 0.360337 9.51551C0.360337 10.0769 0.865884 10.5318 1.48956 10.5318L1.48945 10.532V10.532Z" fill="#777777"/>
</svg>
