<svg width="20" height="20" viewBox="0 0 20 20" fill="none" xmlns="http://www.w3.org/2000/svg">
<path d="M10.752 4.61914L2.5293 9.11719L9.91602 13.0059L18.5781 7.80469L11.1738 4.61914H10.752Z" fill="#CCCCCC"/>
<path d="M10.8887 3.86914L2.36523 8.58594C1.3418 9.15234 0.707031 10.2305 0.707031 11.4004C0.707031 12.6172 1.41406 13.752 2.51367 14.291L9.32227 17.5273C9.47266 17.5996 9.63477 17.6348 9.79688 17.6348C9.99219 17.6348 10.1855 17.584 10.3574 17.4805L19.2949 12.2207V7.39844L10.8887 3.86914ZM10.9551 5.11719L17.5195 7.87305L9.85156 12.3984L3.65625 9.15625L10.9551 5.11719ZM9.80273 16.5078L3 13.2754C2.28906 12.9277 1.83008 12.1895 1.83008 11.3984C1.83008 10.793 2.09375 10.2305 2.53516 9.83789L9.33008 13.3945C9.49219 13.4785 9.66797 13.5215 9.84375 13.5215C10.0371 13.5215 10.2305 13.4707 10.4043 13.3672L18.168 8.79492V11.5742L9.80273 16.5078Z" fill="#CCCCCC"/>
<path d="M9.91602 6.7832L13.9258 8.68944L15.0312 7.85742L11.2012 6.05078L9.91602 6.7832Z" fill="#CCCCCC"/>
</svg>
